<svg xmlns="http://www.w3.org/2000/svg" width="91" height="91" viewBox="0 0 91 91" fill="none"><path d="M16.4622 54.5999H16.3803V54.7929L2.06055 88.9397L65.0835 62.5097L28.4906 25.9167L16.4622 54.5999ZM38.2203 69.8279L30.9403 72.88V33.5134L38.2203 40.7934V69.8279ZM41.8603 44.4334L49.1403 51.7134V65.2488L41.8603 68.3009V44.4334ZM27.3003 74.407L20.0203 77.4592V55.5263L27.3003 38.1653V74.407ZM16.3803 64.2059V78.9861L8.86007 82.1402L16.3803 64.2059ZM52.7803 63.7218V55.3534L58.6771 61.2502L52.7803 63.7218Z" fill="white"></path><path d="M49.1404 16.3801C45.1254 16.3801 41.8604 19.6452 41.8604 23.6601C41.8604 27.675 45.1254 30.9401 49.1404 30.9401C53.1553 30.9401 56.4204 27.675 56.4204 23.6601C56.4204 19.6452 53.1553 16.3801 49.1404 16.3801ZM49.1404 27.3001C47.1329 27.3001 45.5004 25.6676 45.5004 23.6601C45.5004 21.6527 47.1329 20.0201 49.1404 20.0201C51.1478 20.0201 52.7804 21.6527 52.7804 23.6601C52.7804 25.6676 51.1478 27.3001 49.1404 27.3001Z" fill="white"></path><path d="M81.9001 1.82007C77.8852 1.82007 74.6201 5.08515 74.6201 9.10007C74.6201 13.115 77.8852 16.3801 81.9001 16.3801C85.915 16.3801 89.1801 13.115 89.1801 9.10007C89.1801 5.08515 85.915 1.82007 81.9001 1.82007ZM81.9001 12.7401C79.8927 12.7401 78.2601 11.1075 78.2601 9.10007C78.2601 7.09261 79.8927 5.46007 81.9001 5.46007C83.9076 5.46007 85.5401 7.09261 85.5401 9.10007C85.5401 11.1075 83.9076 12.7401 81.9001 12.7401Z" fill="white"></path><path d="M72.8005 30.9402C68.7856 30.9402 65.5205 34.2053 65.5205 38.2202C65.5205 42.2351 68.7856 45.5002 72.8005 45.5002C76.8154 45.5002 80.0805 42.2351 80.0805 38.2202C80.0805 34.2053 76.8154 30.9402 72.8005 30.9402ZM72.8005 41.8602C70.793 41.8602 69.1605 40.2276 69.1605 38.2202C69.1605 36.2127 70.793 34.5802 72.8005 34.5802C74.808 34.5802 76.4405 36.2127 76.4405 38.2202C76.4405 40.2276 74.808 41.8602 72.8005 41.8602Z" fill="white"></path><path d="M65.1709 55.8267L67.7444 58.4002C72.7967 53.3479 81.0213 53.3479 86.0736 58.4002L88.6471 55.8267C82.1733 49.353 71.6428 49.353 65.1709 55.8267Z" fill="white"></path><path d="M34.0471 26.7669C39.0139 21.8001 39.0139 13.7175 34.0471 8.75073L31.4736 11.3242C35.0208 14.8732 35.0208 20.6463 31.4736 24.1934L34.0471 26.7669Z" fill="white"></path><path d="M64.9866 26.3264C71.7169 19.5943 71.7169 8.64331 64.9866 1.91113L62.4131 4.48461C67.7238 9.79719 67.7238 18.4404 62.4131 23.753L64.9866 26.3264Z" fill="white"></path><path d="M54.6 36.4001H50.96V40.0401H54.6V36.4001Z" fill="white"></path><path d="M83.7201 21.8401H80.0801V25.4801H83.7201V21.8401Z" fill="white"></path><path d="M47.3207 5.45996H43.6807V9.09996H47.3207V5.45996Z" fill="white"></path></svg>