<svg xmlns="http://www.w3.org/2000/svg" width="71" height="71" viewBox="0 0 71 71" fill="none"><path d="M49.0071 6.08179H19.801C16.053 6.08179 12.9414 9.12262 12.9414 12.8706V59.6854C12.9414 63.4334 15.9822 66.4742 19.801 66.4742H49.0071C52.7552 66.4742 55.8667 63.4334 55.8667 59.6854V12.8706C55.8667 9.12262 52.8259 6.08179 49.0071 6.08179ZM53.7452 59.6854C53.7452 62.3019 51.6237 64.3527 49.0071 64.3527H19.801C17.1844 64.3527 15.0629 62.2312 15.0629 59.6854V12.8706C15.0629 10.2541 17.1844 8.2033 19.801 8.2033H49.0071C51.6237 8.2033 53.7452 10.3248 53.7452 12.8706V59.6854Z" fill="white" stroke="white"></path><path d="M43.067 12.7998H25.5998C25.0341 12.7998 24.5391 13.2948 24.5391 13.8606C24.5391 14.4263 25.0341 14.9213 25.5998 14.9213H43.067C43.6327 14.9213 44.1277 14.4263 44.1277 13.8606C44.1277 13.2948 43.6327 12.7998 43.067 12.7998Z" fill="white" stroke="white"></path><path d="M34.3689 53.3208C32.3888 53.3208 30.833 54.9473 30.833 56.8567C30.833 57.776 31.1866 58.6953 31.8938 59.3318C32.5302 59.9682 33.4495 60.3218 34.3689 60.3218C36.3489 60.3218 37.9047 58.6953 37.9047 56.7859C37.9047 54.8766 36.3489 53.3208 34.3689 53.3208ZM34.4396 58.271C34.086 58.271 33.7324 58.1296 33.4495 57.8467C33.1667 57.5638 33.0252 57.2102 33.0252 56.8567C33.0252 56.0788 33.6617 55.4423 34.4396 55.4423C35.2175 55.4423 35.8539 56.0788 35.8539 56.8567C35.8539 57.6345 35.2175 58.271 34.4396 58.271Z" fill="white" stroke="white"></path></svg>