<svg xmlns="http://www.w3.org/2000/svg" width="85" height="85" viewBox="0 0 85 85" fill="none"><path d="M33.2031 70.3906C33.2031 73.2086 32.0837 75.9111 30.0911 77.9036C28.0986 79.8962 25.3961 81.0156 22.5781 81.0156C19.7602 81.0156 17.0577 79.8962 15.0651 77.9036C13.0725 75.9111 11.9531 73.2086 11.9531 70.3906" stroke="white" stroke-width="2" stroke-linejoin="round"></path><path d="M57.1094 70.3906C57.1094 73.2086 58.2288 75.9111 60.2214 77.9036C62.2139 79.8962 64.9164 81.0156 67.7344 81.0156C70.5523 81.0156 73.2548 79.8962 75.2474 77.9036C77.24 75.9111 78.3594 73.2086 78.3594 70.3906" stroke="white" stroke-width="2" stroke-linejoin="round"></path><path d="M27.8906 70.3906C27.8906 71.7996 27.3309 73.1508 26.3346 74.1471C25.3383 75.1434 23.9871 75.7031 22.5781 75.7031C21.1692 75.7031 19.8179 75.1434 18.8216 74.1471C17.8253 73.1508 17.2656 71.7996 17.2656 70.3906" stroke="white" stroke-width="2" stroke-linejoin="round"></path><path d="M73.0469 70.3906C73.0469 71.7996 72.4872 73.1508 71.4909 74.1471C70.4946 75.1434 69.1433 75.7031 67.7344 75.7031C66.3254 75.7031 64.9742 75.1434 63.9779 74.1471C62.9816 73.1508 62.4219 71.7996 62.4219 70.3906" stroke="white" stroke-width="2" stroke-linejoin="round"></path><path d="M57.1094 41.1719C56.4049 41.1719 55.7293 41.4517 55.2311 41.9499C54.733 42.448 54.4531 43.1236 54.4531 43.8281C58.1187 43.8281 61.0938 49.1406 61.0938 55.7812C61.0938 60.9211 58.1187 63.75 54.4531 63.75H46.4844C42.0883 63.75 38.5156 60.775 38.5156 57.1094C38.5156 53.4438 42.0883 50.4688 46.4844 50.4688V47.8125H21.25C11.7141 47.8125 3.98438 57.3219 3.98438 69.0625V70.3906H57.1094C62.9797 70.3906 67.7344 63.8562 67.7344 55.7812C67.7344 47.7063 62.9797 41.1719 57.1094 41.1719Z" stroke="white" stroke-width="2" stroke-linecap="round" stroke-linejoin="round"></path><path d="M3.98438 47.8125H21.25" stroke="white" stroke-width="2" stroke-linecap="round" stroke-linejoin="round"></path><path d="M7.96875 70.3906C7.96875 61.5852 14.5031 54.4531 22.5781 54.4531C30.6531 54.4531 37.1875 61.5852 37.1875 70.3906" stroke="white" stroke-width="2" stroke-linejoin="round"></path><path d="M54.4531 70.3906H81.0156C81.0156 67.2205 79.7563 64.1801 77.5146 61.9385C75.273 59.6968 72.2327 58.4375 69.0625 58.4375H67.7344" stroke="white" stroke-width="2" stroke-linejoin="round"></path><path d="M67.7344 30.5469H66.4062C62.0102 30.5469 58.4375 32.9242 58.4375 35.8594C58.4375 38.7945 62.0102 41.1719 66.4062 41.1719H67.7344" stroke="white" stroke-width="2" stroke-linejoin="round"></path><path d="M67.7344 41.1719C69.2014 41.1719 70.3906 38.7934 70.3906 35.8594C70.3906 32.9254 69.2014 30.5469 67.7344 30.5469C66.2674 30.5469 65.0781 32.9254 65.0781 35.8594C65.0781 38.7934 66.2674 41.1719 67.7344 41.1719Z" stroke="white" stroke-width="2" stroke-linejoin="round"></path><path d="M54.4531 43.8281V38.5156C54.4531 37.8111 54.733 37.1355 55.2311 36.6374C55.7293 36.1392 56.4049 35.8594 57.1094 35.8594H58.4375" stroke="white" stroke-width="2" stroke-linejoin="round"></path><path d="M61.0938 35.8594H51.7969" stroke="white" stroke-width="2" stroke-linecap="round" stroke-linejoin="round"></path><path d="M18.5938 65.0781H26.5625" stroke="white" stroke-width="2" stroke-linecap="round" stroke-linejoin="round"></path><path d="M21.25 59.7656H23.9062" stroke="white" stroke-width="2" stroke-linecap="round" stroke-linejoin="round"></path><path d="M15.9375 47.8125C15.233 47.8125 14.5574 47.5326 14.0592 47.0345C13.5611 46.5364 13.2812 45.8607 13.2812 45.1562C13.2812 44.4518 13.5611 43.7761 14.0592 43.278C14.5574 42.7799 15.233 42.5 15.9375 42.5H42.5C43.2045 42.5 43.8801 42.7799 44.3783 43.278C44.8764 43.7761 45.1562 44.4518 45.1562 45.1562C45.1562 45.8607 44.8764 46.5364 44.3783 47.0345C43.8801 47.5326 43.2045 47.8125 42.5 47.8125H15.9375Z" fill="white"></path><path d="M13.2812 38.5156V37.1875C13.2812 33.6651 14.6805 30.287 17.1712 27.7962C19.662 25.3055 23.0401 23.9063 26.5625 23.9062C30.0849 23.9062 33.463 25.3055 35.9538 27.7962C38.4445 30.287 39.8438 33.6651 39.8438 37.1875V38.5156" stroke="white" stroke-width="2" stroke-miterlimit="10"></path><path d="M9.29688 38.5156H43.8281" stroke="white" stroke-width="2" stroke-miterlimit="10" stroke-linecap="round"></path><path d="M23.9062 23.9062V22.5781C23.9062 21.8736 24.1861 21.198 24.6842 20.6999C25.1824 20.2017 25.858 19.9219 26.5625 19.9219C27.267 19.9219 27.9426 20.2017 28.4408 20.6999C28.9389 21.198 29.2188 21.8736 29.2188 22.5781V23.9062" stroke="white" stroke-width="2" stroke-miterlimit="10"></path><path d="M26.5625 19.9219V17.2656" stroke="white" stroke-width="2" stroke-miterlimit="10" stroke-linecap="round"></path></svg>