<svg xmlns="http://www.w3.org/2000/svg" width="84" height="84" viewBox="0 0 84 84" fill="none"><path d="M10.6579 64.9425C10.6875 65.2424 10.7342 65.5404 10.7979 65.835C10.7979 66.0275 10.7979 66.2025 10.9379 66.395C10.9893 66.6621 11.0595 66.9253 11.1479 67.1825C11.1479 67.375 11.2704 67.5675 11.3404 67.76C11.4104 67.9525 11.5154 68.25 11.6204 68.4775C11.7254 68.705 11.8129 68.88 11.9004 69.09C11.9949 69.2994 12.1 69.5039 12.2154 69.7025C12.3379 69.9475 12.4954 70.175 12.6354 70.4025C12.7184 70.5603 12.8119 70.7123 12.9154 70.8575C13.1079 71.155 13.3354 71.435 13.5629 71.7325C13.6139 71.7934 13.6607 71.8577 13.7029 71.925C14.0179 72.2925 14.3504 72.66 14.7004 73.01C15.0504 73.36 15.2604 73.5175 15.5579 73.7625C15.8029 73.9725 16.0829 74.165 16.3454 74.3575L16.6604 74.585L17.2379 74.935C17.4304 75.04 17.6229 75.18 17.8329 75.285L18.1654 75.4425L19.0579 75.8625H19.1804C19.9847 76.1867 20.8164 76.4385 21.6654 76.615H21.8054C22.2091 76.7061 22.6183 76.7704 23.0304 76.8075C23.5163 76.9 24.0071 76.9643 24.5004 77H62.8079C63.8052 77.0325 64.7979 76.8514 65.7195 76.4689C66.6411 76.0863 67.4702 75.5112 68.1513 74.782C68.8325 74.0528 69.3498 73.1865 69.6687 72.241C69.9876 71.2955 70.1007 70.2928 70.0004 69.3L66.0454 30.8C65.8416 29.0448 64.9926 27.428 63.6634 26.2637C62.3342 25.0995 60.6197 24.4708 58.8529 24.5H56.0004V21C56.0004 17.287 54.5254 13.726 51.8999 11.1005C49.2744 8.475 45.7134 7 42.0004 7C38.2874 7 34.7264 8.475 32.1009 11.1005C29.4754 13.726 28.0004 17.287 28.0004 21V24.5H25.1479C23.3871 24.4796 21.6812 25.1121 20.3594 26.2756C19.0376 27.439 18.1936 29.0509 17.9904 30.8L15.7504 52.0275V52.115C15.5229 52.3075 15.2954 52.5 15.0854 52.71C14.8754 52.92 14.5954 53.165 14.3679 53.41C14.1404 53.655 13.9304 53.865 13.7379 54.11C13.5454 54.355 13.4229 54.5125 13.2829 54.7225L12.8804 55.265L12.4429 56C12.316 56.1982 12.1992 56.4026 12.0929 56.6125C11.9739 56.8212 11.8686 57.0375 11.7779 57.26C11.6729 57.4875 11.5679 57.7325 11.4804 57.96C11.3929 58.1875 11.3054 58.3975 11.2354 58.6075L10.9904 59.43L10.8329 60.0425C10.762 60.3601 10.7094 60.6814 10.6754 61.005C10.6754 61.18 10.6754 61.355 10.6754 61.53C10.5927 62.0168 10.5343 62.5074 10.5004 63C10.4738 63.478 10.4738 63.957 10.5004 64.435C10.5441 64.6068 10.5967 64.7762 10.6579 64.9425ZM14.0004 61.8625C13.9919 61.7051 13.9919 61.5474 14.0004 61.39C14.0004 61.1975 14.0004 60.9875 14.1054 60.795C14.2104 60.6025 14.2104 60.375 14.2629 60.165L14.3679 59.7625L14.6304 59.0625L14.7354 58.8C14.8579 58.555 14.9629 58.31 15.1029 58.065C15.2954 57.7325 15.4879 57.4 15.6979 57.085L15.9604 56.735L16.6254 56L16.9404 55.6675C17.1854 55.4225 17.4304 55.1775 17.6929 54.95L17.8504 54.81H17.9379L18.3404 54.5125C18.6211 54.3039 18.9133 54.1111 19.2154 53.935C19.4138 53.8138 19.6182 53.7028 19.8279 53.6025C20.0954 53.4655 20.3699 53.3428 20.6504 53.235C20.8729 53.1401 21.1008 53.0583 21.3329 52.99C21.6369 52.8899 21.9466 52.8081 22.2604 52.745C22.4392 52.7 22.6203 52.6649 22.8029 52.64H22.9429C23.4583 52.5579 23.9787 52.5111 24.5004 52.5C27.2852 52.5 29.9559 53.6062 31.925 55.5754C33.8942 57.5445 35.0004 60.2152 35.0004 63C35.0004 65.7848 33.8942 68.4555 31.925 70.4246C29.9559 72.3938 27.2852 73.5 24.5004 73.5C23.9666 73.4976 23.4339 73.4507 22.9079 73.36H22.6104C22.1238 73.2726 21.6442 73.1498 21.1754 72.9925L20.8954 72.8875C20.4355 72.7145 19.9856 72.5159 19.5479 72.2925C19.1133 72.0572 18.6978 71.788 18.3054 71.4875L18.0429 71.295C17.6784 71.0029 17.3335 70.6873 17.0104 70.35C16.9001 70.248 16.8058 70.13 16.7304 70C16.4163 69.6678 16.1295 69.3108 15.8729 68.9325L15.7504 68.845C15.4777 68.445 15.2377 68.0237 15.0329 67.585C15.0329 67.585 15.0329 67.3925 14.8929 67.2875C14.6923 66.8388 14.5228 66.3769 14.3854 65.905C14.2218 65.3321 14.1048 64.7468 14.0354 64.155C14.0028 63.7709 13.9912 63.3854 14.0004 63C13.9743 62.6213 13.9743 62.2412 14.0004 61.8625ZM31.5004 21C31.5004 18.2152 32.6067 15.5445 34.5758 13.5754C36.5449 11.6062 39.2156 10.5 42.0004 10.5C44.7852 10.5 47.4559 11.6062 49.425 13.5754C51.3942 15.5445 52.5004 18.2152 52.5004 21V24.5H31.5004V21ZM21.4729 31.15C21.5892 30.2642 22.0288 29.4526 22.7071 28.8711C23.3854 28.2897 24.2547 27.9795 25.1479 28H28.0004V33.0575C27.6042 33.4119 27.3249 33.8783 27.1995 34.3949C27.0741 34.9116 27.1085 35.4541 27.2982 35.9507C27.4879 36.4474 27.8239 36.8747 28.2618 37.1762C28.6997 37.4776 29.2188 37.6391 29.7504 37.6391C30.282 37.6391 30.8011 37.4776 31.239 37.1762C31.6769 36.8747 32.0129 36.4474 32.2026 35.9507C32.3923 35.4541 32.4267 34.9116 32.3014 34.3949C32.176 33.8783 31.8967 33.4119 31.5004 33.0575V28H52.5004V33.0575C52.1042 33.4119 51.8249 33.8783 51.6995 34.3949C51.5741 34.9116 51.6085 35.4541 51.7982 35.9507C51.9879 36.4474 52.3239 36.8747 52.7618 37.1762C53.1997 37.4776 53.7188 37.6391 54.2504 37.6391C54.782 37.6391 55.3011 37.4776 55.739 37.1762C56.1769 36.8747 56.5129 36.4474 56.7026 35.9507C56.8923 35.4541 56.9267 34.9116 56.8014 34.3949C56.676 33.8783 56.3967 33.4119 56.0004 33.0575V28H58.8529C59.7461 27.9795 60.6154 28.2897 61.2937 28.8711C61.9721 29.4526 62.4116 30.2642 62.5279 31.15L66.5004 69.65C66.5516 70.1247 66.4999 70.6049 66.3489 71.0578C66.198 71.5108 65.9512 71.9259 65.6254 72.275C65.2718 72.6655 64.8394 72.9765 64.3567 73.1877C63.8741 73.3988 63.3522 73.5053 62.8254 73.5H33.7579L33.8804 73.3775C34.1604 73.115 34.4404 72.8525 34.7029 72.5725L34.8954 72.345C35.1532 72.0753 35.3929 71.7889 35.6129 71.4875L35.8054 71.225C36.0329 70.9275 36.2254 70.63 36.4179 70.3325L36.6104 70.0175L36.7504 70C36.8899 70.0169 37.0309 70.0169 37.1704 70H59.5004C59.9645 70 60.4097 69.8156 60.7379 69.4874C61.066 69.1593 61.2504 68.7141 61.2504 68.25C61.2504 67.7859 61.066 67.3408 60.7379 67.0126C60.4097 66.6844 59.9645 66.5 59.5004 66.5H38.0454V66.395C38.0454 66.2375 38.1329 66.0975 38.1679 65.9575C38.2029 65.8175 38.2904 65.2575 38.3429 64.9075V64.505C38.4216 64.0064 38.4742 63.5041 38.5004 63C38.5004 59.287 37.0254 55.726 34.3999 53.1005C31.7744 50.475 28.2134 49 24.5004 49C24.0804 49 23.6604 49 23.2404 49H23.1354H22.7329L22.0154 49.105H21.8054L21.3679 49.21L20.8429 49.3325H20.5104L20.1079 49.4725L19.6879 49.6125H19.5479L21.4729 31.15Z" fill="white"></path><path d="M20.125 64.75H22.75V67.375C22.75 67.8391 22.9344 68.2842 23.2626 68.6124C23.5908 68.9406 24.0359 69.125 24.5 69.125C24.9641 69.125 25.4092 68.9406 25.7374 68.6124C26.0656 68.2842 26.25 67.8391 26.25 67.375V64.75H28.875C29.3391 64.75 29.7842 64.5656 30.1124 64.2374C30.4406 63.9092 30.625 63.4641 30.625 63C30.625 62.5359 30.4406 62.0908 30.1124 61.7626C29.7842 61.4344 29.3391 61.25 28.875 61.25H26.25V58.625C26.25 58.1609 26.0656 57.7158 25.7374 57.3876C25.4092 57.0594 24.9641 56.875 24.5 56.875C24.0359 56.875 23.5908 57.0594 23.2626 57.3876C22.9344 57.7158 22.75 58.1609 22.75 58.625V61.25H20.125C19.6609 61.25 19.2158 61.4344 18.8876 61.7626C18.5594 62.0908 18.375 62.5359 18.375 63C18.375 63.4641 18.5594 63.9092 18.8876 64.2374C19.2158 64.5656 19.6609 64.75 20.125 64.75Z" fill="white"></path></svg>