<svg xmlns="http://www.w3.org/2000/svg" width="100" height="100" viewBox="0 0 100 100" fill="none"><path d="M77.083 31.2501H35.7288L33.083 23.6667C32.3736 21.6235 31.0456 19.8517 29.2836 18.5973C27.5215 17.343 25.4126 16.6682 23.2497 16.6667H16.6663C16.1138 16.6667 15.5839 16.8862 15.1932 17.2769C14.8025 17.6676 14.583 18.1975 14.583 18.7501C14.583 19.3026 14.8025 19.8325 15.1932 20.2232C15.5839 20.6139 16.1138 20.8334 16.6663 20.8334H23.2497C24.5463 20.8284 25.8123 21.2268 26.8724 21.9733C27.9325 22.7199 28.7342 23.7776 29.1663 25.0001L31.2497 31.2501L36.3122 45.6042L41.9163 61.7501C42.627 63.7967 43.958 65.5709 45.7243 66.8256C47.4905 68.0802 49.604 68.7529 51.7705 68.7501H62.4997C63.0522 68.7501 63.5821 68.5306 63.9728 68.1399C64.3635 67.7492 64.583 67.2193 64.583 66.6667C64.583 66.1142 64.3635 65.5843 63.9728 65.1936C63.5821 64.8029 63.0522 64.5834 62.4997 64.5834H51.7705C50.4704 64.5928 49.1997 64.1964 48.1355 63.4496C47.0712 62.7027 46.2664 61.6426 45.833 60.4167H68.2705C71.1492 60.425 73.9445 59.4509 76.1946 57.6554C78.4446 55.8599 80.0148 53.3505 80.6455 50.5417L83.1872 38.8126C83.3828 37.9017 83.3724 36.9586 83.1566 36.0524C82.9408 35.1461 82.5251 34.2995 81.9399 33.5745C81.3548 32.8496 80.615 32.2646 79.7746 31.8624C78.9343 31.4603 78.0146 31.251 77.083 31.2501ZM79.1663 37.9167L76.6247 49.6459C76.1936 51.5302 75.1331 53.2113 73.6181 54.4119C72.1032 55.6125 70.2243 56.2609 68.2913 56.2501H44.4788L40.208 44.1667L37.1663 35.4167H77.083C77.4117 35.4078 77.7378 35.4767 78.0347 35.6179C78.3316 35.7591 78.5909 35.9686 78.7913 36.2292C78.971 36.4673 79.0974 36.7411 79.1621 37.0323C79.2268 37.3234 79.2283 37.625 79.1663 37.9167Z" fill="white"></path><path d="M41.667 68.75C40.4309 68.75 39.2225 69.1166 38.1947 69.8033C37.1669 70.4901 36.3658 71.4662 35.8927 72.6082C35.4197 73.7503 35.2959 75.0069 35.5371 76.2193C35.7782 77.4317 36.3735 78.5453 37.2476 79.4194C38.1217 80.2935 39.2353 80.8888 40.4477 81.1299C41.6601 81.3711 42.9167 81.2473 44.0588 80.7742C45.2008 80.3012 46.1769 79.5001 46.8637 78.4723C47.5504 77.4445 47.917 76.2361 47.917 75C47.917 73.3424 47.2585 71.7527 46.0864 70.5806C44.9143 69.4085 43.3246 68.75 41.667 68.75ZM41.667 77.0833C41.255 77.0833 40.8522 76.9611 40.5096 76.7322C40.167 76.5033 39.8999 76.1779 39.7422 75.7973C39.5846 75.4166 39.5433 74.9977 39.6237 74.5936C39.7041 74.1894 39.9025 73.8182 40.1939 73.5269C40.4852 73.2355 40.8564 73.0371 41.2606 72.9567C41.6647 72.8763 42.0836 72.9176 42.4643 73.0753C42.8449 73.2329 43.1703 73.5 43.3992 73.8426C43.6281 74.1852 43.7503 74.588 43.7503 75C43.7503 75.5525 43.5308 76.0824 43.1401 76.4731C42.7494 76.8638 42.2195 77.0833 41.667 77.0833Z" fill="white"></path><path d="M70.833 68.75C69.5969 68.75 68.3885 69.1166 67.3607 69.8033C66.3329 70.4901 65.5318 71.4662 65.0588 72.6082C64.5857 73.7503 64.4619 75.0069 64.7031 76.2193C64.9443 77.4317 65.5395 78.5453 66.4136 79.4194C67.2877 80.2935 68.4013 80.8888 69.6137 81.1299C70.8261 81.3711 72.0827 81.2473 73.2248 80.7742C74.3668 80.3012 75.3429 79.5001 76.0297 78.4723C76.7165 77.4445 77.083 76.2361 77.083 75C77.083 73.3424 76.4245 71.7527 75.2524 70.5806C74.0803 69.4085 72.4906 68.75 70.833 68.75ZM70.833 77.0833C70.421 77.0833 70.0182 76.9611 69.6756 76.7322C69.333 76.5033 69.0659 76.1779 68.9083 75.7973C68.7506 75.4166 68.7093 74.9977 68.7897 74.5936C68.8701 74.1894 69.0685 73.8182 69.3599 73.5269C69.6512 73.2355 70.0224 73.0371 70.4266 72.9567C70.8307 72.8763 71.2496 72.9176 71.6303 73.0753C72.0109 73.2329 72.3363 73.5 72.5652 73.8426C72.7942 74.1852 72.9163 74.588 72.9163 75C72.9163 75.5525 72.6969 76.0824 72.3062 76.4731C71.9155 76.8638 71.3855 77.0833 70.833 77.0833Z" fill="white"></path></svg>