<svg xmlns="http://www.w3.org/2000/svg" width="91" height="91" viewBox="0 0 91 91" fill="none"><g clip-path="url(#clip0_301_110)"><path d="M68.25 42.6562H77.8832C78.408 42.6574 78.9226 42.5115 79.3687 42.2351C79.8148 41.9586 80.1745 41.5627 80.407 41.0922L86.9477 28.0109C87.2717 27.3558 87.3345 26.602 87.1232 25.9022C86.912 25.2025 86.4426 24.6094 85.8102 24.243L68.25 14.2188" stroke="white" stroke-width="3" stroke-linecap="round" stroke-linejoin="round"></path><path d="M22.75 42.6562H13.1168C12.592 42.6574 12.0774 42.5115 11.6313 42.2351C11.1852 41.9586 10.8255 41.5627 10.593 41.0922L4.05236 28.0109C3.72832 27.3558 3.66554 26.602 3.87678 25.9022C4.08801 25.2025 4.55743 24.6094 5.18986 24.243L22.75 14.2188" stroke="white" stroke-width="3" stroke-linecap="round" stroke-linejoin="round"></path><path d="M56.875 14.2188C56.875 17.2356 55.6766 20.1289 53.5433 22.2621C51.4101 24.3953 48.5168 25.5937 45.5 25.5938C42.4832 25.5937 39.5899 24.3953 37.4567 22.2621C35.3234 20.1289 34.125 17.2356 34.125 14.2188H22.75V73.9375C22.75 74.6917 23.0496 75.415 23.5829 75.9483C24.1162 76.4816 24.8395 76.7812 25.5938 76.7812H65.4062C66.1605 76.7812 66.8838 76.4816 67.4171 75.9483C67.9504 75.415 68.25 74.6917 68.25 73.9375V14.2188H56.875Z" stroke="white" stroke-width="3" stroke-linecap="round" stroke-linejoin="round"></path></g><defs><clipPath id="clip0_301_110"><rect width="91" height="91" fill="white"></rect></clipPath></defs></svg>