<svg xmlns="http://www.w3.org/2000/svg" width="67" height="84" viewBox="0 0 67 84" fill="none"><path d="M25.5 62V80.9558C25.5 81.6809 26.2475 82.1649 26.9091 81.8684L39.4091 76.2649C39.7686 76.1037 40 75.7464 40 75.3524V62.3147C40 62.1099 40.0629 61.9099 40.1802 61.742L64.4013 27.0727C64.8644 26.4098 64.3901 25.5 63.5815 25.5H4.79117C4.00851 25.5 3.52921 26.3585 3.93991 27.0247L9.16438 35.5M25.5 62L9.16438 35.5M25.5 62H34.5M9.16438 35.5H42.5M2 0V13.5M24 2V12.5M56 9V19.5" stroke="white" stroke-width="3"></path><circle cx="17.5" cy="20" r="4.5" stroke="white" stroke-width="3"></circle><circle cx="38.5" cy="7" r="4.5" stroke="white" stroke-width="3"></circle><path d="M51.5 27C51.5 22.5817 47.9183 19 43.5 19C39.0817 19 35.5 22.5817 35.5 27" stroke="white" stroke-width="3"></path></svg>