<svg xmlns="http://www.w3.org/2000/svg" width="148" height="89" viewBox="0 0 148 89" fill="none"><path d="M96.0887 2H85.5928L86.9075 15.1472C86.9075 15.1472 89.5369 17.7766 93.4811 17.7766C96.313 17.7766 98.2411 16.421 99.1036 15.6565C99.4473 15.3518 99.5729 14.8866 99.4975 14.4336L97.6448 3.31829C97.518 2.55757 96.8599 2 96.0887 2Z" stroke="white" stroke-width="3"></path><path d="M85.5932 2L86.9079 15.1472C86.9079 15.1472 84.2785 17.7766 80.3343 17.7766C76.3902 17.7766 73.7607 15.1472 73.7607 15.1472V2H85.5932Z" stroke="white" stroke-width="3"></path><path d="M73.7605 2V15.1472C73.7605 15.1472 71.131 17.7766 67.1869 17.7766C63.2427 17.7766 60.6133 15.1472 60.6133 15.1472L61.928 2H73.7605Z" stroke="white" stroke-width="3"></path><path d="M61.9259 2H51.4299C50.6587 2 50.0005 2.55757 49.8737 3.31829L48.0211 14.4336C47.9456 14.8866 48.0714 15.3518 48.4151 15.6565C49.2773 16.421 51.2055 17.7766 54.0375 17.7766C57.9817 17.7766 60.6111 15.1472 60.6111 15.1472L61.9259 2Z" stroke="white" stroke-width="3"></path><path d="M50.1113 17.7766V44.0709C50.1113 46.9754 52.4658 49.3298 55.3702 49.3298H92.1823C95.0867 49.3298 97.4411 46.9754 97.4411 44.0709V17.7766" stroke="white" stroke-width="3"></path><path d="M29.1883 64.9828C29.1883 72.7053 15.5942 85.9566 15.5942 85.9566C15.5942 85.9566 2 72.7053 2 64.9828C2 57.2604 8.08632 51.0002 15.5942 51.0002C23.102 51.0002 29.1883 57.2604 29.1883 64.9828Z" stroke="white" stroke-width="3"></path><mask id="path-7-inside-1_561_25" fill="white"><path d="M38.6254 41.3614C39.3959 41.6658 40.2673 41.2881 40.5717 40.5176C40.8762 39.7472 40.4985 38.8758 39.728 38.5713C38.9576 38.2668 38.0862 38.6446 37.7817 39.415C37.4772 40.1855 37.855 41.0569 38.6254 41.3614Z"></path></mask><path d="M38.6254 41.3614C39.3959 41.6658 40.2673 41.2881 40.5717 40.5176C40.8762 39.7472 40.4985 38.8758 39.728 38.5713C38.9576 38.2668 38.0862 38.6446 37.7817 39.415C37.4772 40.1855 37.855 41.0569 38.6254 41.3614Z" fill="white"></path><path d="M37.5228 44.1514C39.8342 45.0648 42.4484 43.9316 43.3618 41.6202L37.7817 39.415C38.0862 38.6446 38.9576 38.2668 39.728 38.5713L37.5228 44.1514ZM43.3618 41.6202C44.2752 39.3089 43.142 36.6947 40.8306 35.7813L38.6254 41.3614C37.855 41.0569 37.4772 40.1855 37.7817 39.415L43.3618 41.6202ZM40.8306 35.7813C38.5193 34.8679 35.9051 36.0011 34.9917 38.3124L40.5717 40.5176C40.2673 41.2881 39.3959 41.6658 38.6254 41.3614L40.8306 35.7813ZM34.9917 38.3124C34.0783 40.6238 35.2115 43.238 37.5228 44.1514L39.728 38.5713C40.4985 38.8758 40.8762 39.7472 40.5717 40.5176L34.9917 38.3124Z" fill="white" mask="url(#path-7-inside-1_561_25)"></path><mask id="path-9-inside-2_561_25" fill="white"><path d="M30.6362 47.3443C31.4066 47.6487 32.278 47.271 32.5825 46.5005C32.887 45.7301 32.5092 44.8587 31.7388 44.5542C30.9683 44.2498 30.0969 44.6275 29.7925 45.3979C29.488 46.1684 29.8657 47.0398 30.6362 47.3443Z"></path></mask><path d="M30.6362 47.3443C31.4066 47.6487 32.278 47.271 32.5825 46.5005C32.887 45.7301 32.5092 44.8587 31.7388 44.5542C30.9683 44.2498 30.0969 44.6275 29.7925 45.3979C29.488 46.1684 29.8657 47.0398 30.6362 47.3443Z" fill="white"></path><path d="M29.5336 50.1343C31.8449 51.0477 34.4591 49.9145 35.3725 47.6031L29.7925 45.3979C30.0969 44.6275 30.9683 44.2498 31.7388 44.5542L29.5336 50.1343ZM35.3725 47.6031C36.2859 45.2918 35.1527 42.6776 32.8414 41.7642L30.6362 47.3443C29.8657 47.0398 29.488 46.1684 29.7925 45.3979L35.3725 47.6031ZM32.8414 41.7642C30.53 40.8508 27.9158 41.984 27.0024 44.2953L32.5825 46.5005C32.278 47.271 31.4066 47.6487 30.6362 47.3443L32.8414 41.7642ZM27.0024 44.2953C26.089 46.6067 27.2222 49.2209 29.5336 50.1343L31.7388 44.5542C32.5092 44.8587 32.887 45.7301 32.5825 46.5005L27.0024 44.2953Z" fill="white" mask="url(#path-9-inside-2_561_25)"></path><mask id="path-11-inside-3_561_25" fill="white"><path d="M108.294 42.5639C107.549 42.9263 106.651 42.6163 106.289 41.8714C105.926 41.1265 106.236 40.2287 106.981 39.8663C107.726 39.5038 108.624 39.8138 108.986 40.5588C109.349 41.3037 109.039 42.2014 108.294 42.5639Z"></path></mask><path d="M108.294 42.5639C107.549 42.9263 106.651 42.6163 106.289 41.8714C105.926 41.1265 106.236 40.2287 106.981 39.8663C107.726 39.5038 108.624 39.8138 108.986 40.5588C109.349 41.3037 109.039 42.2014 108.294 42.5639Z" fill="white"></path><path d="M109.607 45.2615C107.372 46.3489 104.679 45.4187 103.591 43.184L108.986 40.5588C108.624 39.8138 107.726 39.5038 106.981 39.8663L109.607 45.2615ZM103.591 43.184C102.504 40.9492 103.434 38.2561 105.669 37.1687L108.294 42.5639C109.039 42.2014 109.349 41.3037 108.986 40.5588L103.591 43.184ZM105.669 37.1687C107.903 36.0813 110.597 37.0114 111.684 39.2461L106.289 41.8714C106.651 42.6163 107.549 42.9263 108.294 42.5639L105.669 37.1687ZM111.684 39.2461C112.771 41.4809 111.841 44.1741 109.607 45.2615L106.981 39.8663C106.236 40.2287 105.926 41.1264 106.289 41.8714L111.684 39.2461Z" fill="white" mask="url(#path-11-inside-3_561_25)"></path><mask id="path-13-inside-4_561_25" fill="white"><path d="M116.717 47.9188C115.972 48.2813 115.074 47.9713 114.712 47.2264C114.349 46.4814 114.659 45.5837 115.404 45.2212C116.149 44.8588 117.047 45.1688 117.409 45.9137C117.772 46.6587 117.462 47.5564 116.717 47.9188Z"></path></mask><path d="M116.717 47.9188C115.972 48.2813 115.074 47.9713 114.712 47.2264C114.349 46.4814 114.659 45.5837 115.404 45.2212C116.149 44.8588 117.047 45.1688 117.409 45.9137C117.772 46.6587 117.462 47.5564 116.717 47.9188Z" fill="white"></path><path d="M118.029 50.6164C115.795 51.7039 113.101 50.7737 112.014 48.539L117.409 45.9137C117.047 45.1688 116.149 44.8588 115.404 45.2212L118.029 50.6164ZM112.014 48.539C110.927 46.3042 111.857 43.6111 114.092 42.5237L116.717 47.9188C117.462 47.5564 117.772 46.6587 117.409 45.9137L112.014 48.539ZM114.092 42.5237C116.326 41.4362 119.019 42.3664 120.107 44.6011L114.712 47.2264C115.074 47.9713 115.972 48.2813 116.717 47.9188L114.092 42.5237ZM120.107 44.6011C121.194 46.8359 120.264 49.529 118.029 50.6164L115.404 45.2212C114.659 45.5837 114.349 46.4814 114.712 47.2264L120.107 44.6011Z" fill="white" mask="url(#path-13-inside-4_561_25)"></path><path d="M146.188 62.9826C146.188 70.705 132.594 83.9564 132.594 83.9564C132.594 83.9564 119 70.705 119 62.9826C119 55.2602 125.086 49 132.594 49C140.102 49 146.188 55.2602 146.188 62.9826Z" stroke="white" stroke-width="3"></path></svg>