<svg xmlns="http://www.w3.org/2000/svg" viewBox="0 0 297.46 261.14"><defs><style>.cls-1,.cls-2,.cls-3{stroke:#000;stroke-miterlimit:10;}.cls-1,.cls-2{stroke-width:2px;}.cls-2{fill:#fff;}.cls-3{stroke-width:0.25px;}</style></defs><title>Ресурс 2</title><g id="&#x421;&#x43B;&#x43E;&#x439;_2" data-name="&#x421;&#x43B;&#x43E;&#x439; 2"><g id="Layer_1" data-name="Layer 1"><path class="cls-1" d="M229.8,260.14H30.53A29.57,29.57,0,0,1,1,230.61V30.48A29.54,29.54,0,0,1,30.53,1H229.8a29.52,29.52,0,0,1,29.48,29.48V230.61A29.54,29.54,0,0,1,229.8,260.14ZM30.53,5.53a25,25,0,0,0-25,25V230.61a25,25,0,0,0,25,25H229.8a25,25,0,0,0,24.95-25V30.48A25,25,0,0,0,229.8,5.53Z"></path><path class="cls-1" d="M257,57H3.26A2.26,2.26,0,0,1,1,54.71V30.48A29.54,29.54,0,0,1,30.53,1H229.8a29.52,29.52,0,0,1,29.48,29.48V54.71A2.27,2.27,0,0,1,257,57ZM5.53,52.45H254.75v-22A25,25,0,0,0,229.8,5.53H30.53a25,25,0,0,0-25,25Z"></path><circle class="cls-2" cx="33.19" cy="30.01" r="8.08"></circle><path class="cls-1" d="M33.19,40.35A10.35,10.35,0,1,1,43.54,30,10.35,10.35,0,0,1,33.19,40.35Zm0-16.16A5.82,5.82,0,1,0,39,30,5.82,5.82,0,0,0,33.19,24.19Z"></path><circle class="cls-2" cx="61.22" cy="30.01" r="8.08"></circle><path class="cls-1" d="M61.22,40.35A10.35,10.35,0,1,1,71.57,30,10.35,10.35,0,0,1,61.22,40.35Zm0-16.16A5.82,5.82,0,1,0,67,30,5.82,5.82,0,0,0,61.22,24.19Z"></path><circle class="cls-2" cx="89.25" cy="30.01" r="8.08"></circle><path class="cls-1" d="M89.25,40.35A10.35,10.35,0,1,1,99.6,30,10.35,10.35,0,0,1,89.25,40.35Zm0-16.16A5.82,5.82,0,1,0,95.07,30,5.82,5.82,0,0,0,89.25,24.19Z"></path><path class="cls-2" d="M235.18,29.14A7.2,7.2,0,0,1,228,36.32H150.76a7.2,7.2,0,1,1,0-14.39H228A7.21,7.21,0,0,1,235.18,29.14Z"></path><path class="cls-1" d="M228,38.58H150.76a9.46,9.46,0,1,1,0-18.92H228a9.46,9.46,0,1,1,0,18.92ZM150.76,24.19a4.94,4.94,0,1,0,0,9.87H228a4.94,4.94,0,1,0,0-9.87Z"></path><path class="cls-1" d="M69.48,239.76H36.87a14.15,14.15,0,0,1-14.13-14.13v-38.9A14.15,14.15,0,0,1,36.87,172.6H69.48A14.14,14.14,0,0,1,83.6,186.73v38.9A14.14,14.14,0,0,1,69.48,239.76ZM36.87,177.13a9.6,9.6,0,0,0-9.6,9.6v38.9a9.61,9.61,0,0,0,9.6,9.6H69.48a9.62,9.62,0,0,0,9.6-9.6v-38.9a9.61,9.61,0,0,0-9.6-9.6Z"></path><path class="cls-1" d="M146.87,239.76H114.26a14.17,14.17,0,0,1-14.17-14.13v-38.9a14.17,14.17,0,0,1,14.17-14.13h32.61A14.15,14.15,0,0,1,161,186.73v38.9A14.15,14.15,0,0,1,146.87,239.76Zm-32.61-62.63a9.63,9.63,0,0,0-9.64,9.6v38.9a9.64,9.64,0,0,0,9.64,9.6h32.61a9.61,9.61,0,0,0,9.6-9.6v-38.9a9.6,9.6,0,0,0-9.6-9.6Z"></path><path class="cls-1" d="M224.27,239.76H191.62a14.15,14.15,0,0,1-14.13-14.13v-38.9a14.15,14.15,0,0,1,14.13-14.13h32.65a14.15,14.15,0,0,1,14.13,14.13v38.9A14.15,14.15,0,0,1,224.27,239.76Zm-32.65-62.63a9.6,9.6,0,0,0-9.6,9.6v38.9a9.61,9.61,0,0,0,9.6,9.6h32.65a9.62,9.62,0,0,0,9.6-9.6v-38.9a9.61,9.61,0,0,0-9.6-9.6Z"></path><path class="cls-1" d="M224.27,154.21H36.87a14.15,14.15,0,0,1-14.13-14.13V87A14.15,14.15,0,0,1,36.87,72.83h187.4A14.15,14.15,0,0,1,238.4,87v53.12A14.15,14.15,0,0,1,224.27,154.21ZM36.87,77.36a9.6,9.6,0,0,0-9.6,9.6v53.12a9.61,9.61,0,0,0,9.6,9.6h187.4a9.62,9.62,0,0,0,9.6-9.6V87a9.61,9.61,0,0,0-9.6-9.6Z"></path><path class="cls-2" d="M294.19,53.26V57a34,34,0,0,1-34,34h-30.3a2.78,2.78,0,0,0-1.76.64l-16,14a2.69,2.69,0,0,1-4.44-2V92.94a2.7,2.7,0,0,0-2.26-2.63A34,34,0,0,1,178.08,57V53.31a33.94,33.94,0,0,1,33.92-34h48.27A33.9,33.9,0,0,1,294.19,53.26Z"></path><path class="cls-1" d="M210.4,108.5a5,5,0,0,1-5-5V92.94c0-.3-.38-.4-.46-.41A36.3,36.3,0,0,1,175.81,57V53.31A36.25,36.25,0,0,1,212,17.08h48.27a36.22,36.22,0,0,1,36.19,36.18V57a36.27,36.27,0,0,1-36.23,36.23h-30.3l-16.31,14.07A4.9,4.9,0,0,1,210.4,108.5ZM212,21.61a31.71,31.71,0,0,0-31.66,31.7V57a31.78,31.78,0,0,0,25.53,31.11A5,5,0,0,1,210,92.94v10.59a.39.39,0,0,0,.25.39l16.47-14a5.13,5.13,0,0,1,3.25-1.19h30.3A31.74,31.74,0,0,0,291.93,57V53.26a31.69,31.69,0,0,0-31.66-31.65Z"></path><path class="cls-1" d="M216.93,73.1c-15.22,0-27.17-15-27.67-15.63a2.25,2.25,0,0,1,0-2.8C189.76,54,201.71,39,216.93,39s27.18,15,27.68,15.63a2.25,2.25,0,0,1,0,2.8C244.11,58.11,232.17,73.1,216.93,73.1Zm-22.9-17c3.21,3.53,12.4,12.5,22.9,12.5s19.72-9,22.91-12.5c-3.2-3.52-12.4-12.5-22.91-12.5S197.24,52.54,194,56.07Z"></path><path class="cls-1" d="M216.93,65.84a9.77,9.77,0,1,1,9.77-9.77A9.78,9.78,0,0,1,216.93,65.84Zm0-15a5.24,5.24,0,1,0,5.24,5.24A5.24,5.24,0,0,0,216.93,50.83Z"></path><path class="cls-3" d="M261.43,61.14h-1.24V47.81a2.56,2.56,0,0,0-2.57-2.57h-.54a2.9,2.9,0,0,0-1.34.34l-3.5,1.82a2.45,2.45,0,0,0-1.41,2.25,2.4,2.4,0,0,0,.7,1.73,2.28,2.28,0,0,0,2.91.41l.75-.36v9.71h-1.77a2.36,2.36,0,0,0-1.73.73A2.42,2.42,0,0,0,253.42,66h8a2.43,2.43,0,0,0,1.71-.68,2.34,2.34,0,0,0,.73-1.73,2.41,2.41,0,0,0-.71-1.72A2.38,2.38,0,0,0,261.43,61.14Z"></path><path class="cls-3" d="M277.8,52.8a9.59,9.59,0,0,0-6.66-.58l.32-2.14h6.38a2.45,2.45,0,0,0,1.71-.67,2.38,2.38,0,0,0,.73-1.73,2.42,2.42,0,0,0-2.44-2.44h-8.32a2.61,2.61,0,0,0-1.82.71,2.78,2.78,0,0,0-.85,1.69l-1.17,6.9a4.76,4.76,0,0,0-.07.84,2.69,2.69,0,0,0,1,2.1,3.09,3.09,0,0,0,3.34.4l.32-.18c1.82-1.1,4.3-1.25,5.39-.32a1.89,1.89,0,0,1,.62,1.55c0,1.14-.39,1.52-.69,1.71-1.18.76-4,1-6.6-.32a2.43,2.43,0,0,0-2.88.5,2.47,2.47,0,0,0-.62,1.66,2.3,2.3,0,0,0,.36,1.3,2.86,2.86,0,0,0,.72.71l.05,0a11.44,11.44,0,0,0,6.23,1.71,9,9,0,0,0,6.2-2,6.74,6.74,0,0,0,2.23-5.22,7.68,7.68,0,0,0-.86-3.65A6.3,6.3,0,0,0,277.8,52.8Z"></path><path class="cls-2" d="M63,209.78l-12.64,7.88a4.2,4.2,0,0,1-6.43-3.58v-15.8a4.21,4.21,0,0,1,6.43-3.58L63,202.62A4.24,4.24,0,0,1,63,209.78Z"></path><path class="cls-1" d="M48.14,220.58a6.38,6.38,0,0,1-3.12-.82,6.47,6.47,0,0,1-3.35-5.68v-15.8a6.48,6.48,0,0,1,3.38-5.69,6.31,6.31,0,0,1,6.53.2l12.62,7.92a6.5,6.5,0,0,1,0,11h0l-12.64,7.88A6.38,6.38,0,0,1,48.14,220.58Zm0-24.27a2,2,0,0,0-.94.25,1.93,1.93,0,0,0-1,1.72v15.8a1.91,1.91,0,0,0,1,1.72,1.88,1.88,0,0,0,1.95-.06l12.63-7.87a2,2,0,0,0,0-3.34l-12.62-7.92A1.9,1.9,0,0,0,48.16,196.31ZM63,209.78h0Z"></path><path class="cls-1" d="M124.26,220.58a6.36,6.36,0,0,1-3.12-.82,6.47,6.47,0,0,1-3.35-5.68v-15.8a6.48,6.48,0,0,1,3.38-5.69,6.31,6.31,0,0,1,6.53.2l12.62,7.92a6.5,6.5,0,0,1,0,11h0l-12.64,7.88A6.38,6.38,0,0,1,124.26,220.58Zm0-24.27a2,2,0,0,0-.94.25,1.93,1.93,0,0,0-1,1.72v15.8a1.91,1.91,0,0,0,1,1.72,1.88,1.88,0,0,0,2-.06l12.63-7.88a2,2,0,0,0,0-3.33l-12.62-7.92A1.9,1.9,0,0,0,124.28,196.31Zm14.84,13.47h0Z"></path><path class="cls-2" d="M216.49,209.78l-12.63,7.88a4.2,4.2,0,0,1-6.43-3.58v-15.8a4.21,4.21,0,0,1,6.43-3.58l12.63,7.92A4.24,4.24,0,0,1,216.49,209.78Z"></path><path class="cls-1" d="M201.63,220.58a6.51,6.51,0,0,1-6.47-6.5v-15.8a6.5,6.5,0,0,1,3.38-5.69,6.33,6.33,0,0,1,6.54.2l12.62,7.92a6.49,6.49,0,0,1,0,11h0l-12.63,7.88A6.39,6.39,0,0,1,201.63,220.58Zm0-24.27a1.89,1.89,0,0,0-.93.25,1.92,1.92,0,0,0-1,1.72v15.8a1.93,1.93,0,0,0,1,1.72,1.88,1.88,0,0,0,2-.06l12.63-7.88a2,2,0,0,0,0-3.33l-12.62-7.92A1.85,1.85,0,0,0,201.65,196.31Zm14.84,13.47h0Z"></path></g></g></svg>