<svg xmlns="http://www.w3.org/2000/svg" viewBox="0 0 250.2 272.31"><defs><style>.cls-1,.cls-2,.cls-3{stroke:#000;stroke-miterlimit:10;stroke-width:2px;}.cls-2{fill:#233e56;}.cls-3{fill:#fff;}</style></defs><title>Ресурс 3</title><g id="&#x421;&#x43B;&#x43E;&#x439;_2" data-name="&#x421;&#x43B;&#x43E;&#x439; 2"><g id="Layer_1" data-name="Layer 1"><path class="cls-1" d="M155.29,271.31h-122A32.37,32.37,0,0,1,1,239V33.31A32.35,32.35,0,0,1,33.31,1h122A32.35,32.35,0,0,1,187.6,33.31V239A32.37,32.37,0,0,1,155.29,271.31ZM33.31,5.16A28.18,28.18,0,0,0,5.16,33.31V239a28.21,28.21,0,0,0,28.15,28.2h122A28.21,28.21,0,0,0,183.44,239V33.31A28.18,28.18,0,0,0,155.29,5.16Z"></path><path class="cls-1" d="M185.52,44.33H3.08A2.08,2.08,0,0,1,1,42.25V33.31A32.35,32.35,0,0,1,33.31,1h122A32.35,32.35,0,0,1,187.6,33.31v8.94A2.08,2.08,0,0,1,185.52,44.33ZM5.16,40.17H183.44V33.31A28.18,28.18,0,0,0,155.29,5.16h-122A28.18,28.18,0,0,0,5.16,33.31Z"></path><path class="cls-1" d="M155.29,271.31h-122A32.35,32.35,0,0,1,1,239v-8.94A2.08,2.08,0,0,1,3.08,228H185.52a2.08,2.08,0,0,1,2.08,2.08V239A32.35,32.35,0,0,1,155.29,271.31ZM5.16,232.14V239a28.18,28.18,0,0,0,28.15,28.15h122A28.18,28.18,0,0,0,183.44,239v-6.86Z"></path><line class="cls-2" x1="87.1" y1="22.67" x2="123.15" y2="22.67"></line><path class="cls-1" d="M123.15,24.75H87.1a2.08,2.08,0,1,1,0-4.16h36.05a2.08,2.08,0,0,1,0,4.16Z"></path><line class="cls-2" x1="65.45" y1="22.67" x2="73.06" y2="22.67"></line><path class="cls-1" d="M73.06,24.75H65.45a2.08,2.08,0,0,1,0-4.16h7.61a2.08,2.08,0,0,1,0,4.16Z"></path><line class="cls-2" x1="65.45" y1="249.64" x2="123.15" y2="249.64"></line><path class="cls-1" d="M123.15,251.72H65.45a2.08,2.08,0,0,1,0-4.16h57.7a2.08,2.08,0,0,1,0,4.16Z"></path><path class="cls-3" d="M247.12,133.27A65.13,65.13,0,0,1,182,198.43H117a4.94,4.94,0,0,1-2.87-9l18.8-13.31a65.16,65.16,0,1,1,114.23-42.87Z"></path><path class="cls-1" d="M182,200.51H117a7,7,0,0,1-4.07-12.76l17-12A67.24,67.24,0,1,1,182,200.51Zm0-130.33a63.08,63.08,0,0,0-47.51,104.59,2.09,2.09,0,0,1-.36,3.07l-18.8,13.31a2.77,2.77,0,0,0-1.09,3.2,2.81,2.81,0,0,0,2.76,2h65a63.09,63.09,0,0,0,0-126.17Z"></path><path class="cls-3" d="M211.6,139.46a1.71,1.71,0,0,1-.21.24,1.29,1.29,0,0,1-.28.25L183,168.11a5,5,0,0,1-7,0l-28-28-.21-.21a2.78,2.78,0,0,1-.24-.28c-10.23-10.52-7.69-28.86,7.48-35.55a21.09,21.09,0,0,1,24.35,5.57l.17.21c.16-.2.34-.39.52-.58,6.41-6.71,16.28-9.14,24.69-5.19C219.43,111,221.74,129,211.6,139.46Z"></path><path class="cls-1" d="M179.46,171.65a7,7,0,0,1-5-2.07l-28-28a5,5,0,0,1-.73-.83,23.6,23.6,0,0,1-6-20.92,24.3,24.3,0,0,1,14.44-17.66,23.2,23.2,0,0,1,25.38,4.66c7.23-6.77,17.52-8.65,26.06-4.63a24.36,24.36,0,0,1,13.94,17.71,24.06,24.06,0,0,1-6.36,21,3.11,3.11,0,0,1-.27.3,6.69,6.69,0,0,1-.58.5l-27.83,27.91a7,7,0,0,1-5,2.07Zm-30.08-33,28,28a2.89,2.89,0,0,0,2.06.85h0a2.88,2.88,0,0,0,2-.85l28.13-28.16a5.21,5.21,0,0,1,.47-.47,19.84,19.84,0,0,0,5.28-17.37A20.2,20.2,0,0,0,203.78,106c-7.33-3.45-16.29-1.55-22.3,4.74a4.62,4.62,0,0,0-.41.46,2,2,0,0,1-1.64.76,2.11,2.11,0,0,1-1.62-.81,19.08,19.08,0,0,0-22-5.15,20.22,20.22,0,0,0-12,14.65,19.75,19.75,0,0,0,5.2,17.55l-1,1.94Z"></path></g></g></svg>