<svg xmlns="http://www.w3.org/2000/svg" viewBox="0 0 227.04 259.57"><defs><style>.cls-1{stroke:#000;stroke-miterlimit:10;stroke-width:2px;}</style></defs><title>Ресурс 4</title><g id="&#x421;&#x43B;&#x43E;&#x439;_2" data-name="&#x421;&#x43B;&#x43E;&#x439; 2"><g id="Layer_1" data-name="Layer 1"><path class="cls-1" d="M83.79,258.57a84.52,84.52,0,0,1-10.76-.7A82.75,82.75,0,0,1,83.74,93.06a84.55,84.55,0,0,1,10.77.7,2.53,2.53,0,0,1,2.2,2.51v45.65a2.53,2.53,0,0,1-3.22,2.43,35,35,0,0,0-9.71-1.43,32.88,32.88,0,1,0,32.63,32.9V3.53A2.53,2.53,0,0,1,118.94,1h45a2.52,2.52,0,0,1,2.52,2.53V3.8c0,5.64,1.61,55.1,57.2,57.44A2.52,2.52,0,0,1,226,63.76V108a2.53,2.53,0,0,1-.78,1.83,2.6,2.6,0,0,1-1.85.7c-1.53-.07-35.33-1.65-57-17.64v79.56a106.68,106.68,0,0,1-.64,14A82.93,82.93,0,0,1,83.79,258.57ZM83.74,98.11a77.7,77.7,0,0,0-10,154.75,79.65,79.65,0,0,0,10.1.65,77.86,77.86,0,0,0,77-67.69,102.2,102.2,0,0,0,.6-13.35V87.58a2.53,2.53,0,0,1,4.23-1.87C182.36,101,212,104.56,221,105.32V66.15C168,62.59,162.1,17,161.45,6.05h-40V175.82a37.66,37.66,0,1,1-29.8-37.12V98.52A78,78,0,0,0,83.74,98.11Z"></path></g></g></svg>