<svg xmlns="http://www.w3.org/2000/svg" viewBox="0 0 240.89 258.56"><defs><style>.cls-1{fill:#020202;}</style></defs><title>Таргет</title><g id="&#x421;&#x43B;&#x43E;&#x439;_2" data-name="&#x421;&#x43B;&#x43E;&#x439; 2"><g id="Layer_1" data-name="Layer 1"><path class="cls-1" d="M17.67,35.34A17.67,17.67,0,1,0,0,17.67,17.71,17.71,0,0,0,17.67,35.34Zm0-29A11.19,11.19,0,1,1,6.48,17.49,11.19,11.19,0,0,1,17.67,6.3Z"></path><path class="cls-1" d="M63,35.34A17.67,17.67,0,1,0,45.37,17.67,17.66,17.66,0,0,0,63,35.34ZM63,6.48A11.19,11.19,0,1,1,51.85,17.67,11.19,11.19,0,0,1,63,6.48Z"></path><path class="cls-1" d="M108.5,35.34A17.67,17.67,0,1,0,90.83,17.67,17.77,17.77,0,0,0,108.5,35.34Zm-.09-28.86A11.19,11.19,0,1,1,97.23,17.67,11.19,11.19,0,0,1,108.41,6.48Z"></path><path class="cls-1" d="M197.76,62.31a13.93,13.93,0,0,0-8.45,3.11L63.59,115.34H17.14a3.28,3.28,0,0,0-3.29,3.29V241.68A3.28,3.28,0,0,0,17.14,245H43.92A3.35,3.35,0,0,0,47,242.66l19.22-62.82,25.89,10.33,8.45,43.5a3.16,3.16,0,0,0,1.78,2.32l47.51,22.24a3.05,3.05,0,0,0,2.76,0,3.17,3.17,0,0,0,1.78-2.05l10.76-37,24,9.52a13.83,13.83,0,0,0,8.45,3.11c19.22,0,29.72-43.68,29.72-84.79S217,62.31,197.76,62.31ZM41.08,238.76h-21V179.27H59.34Zm19.83-65.71H20.07V122.44H60.91Zm88.17,77.78-42.53-19.89L99.18,193.3,158.93,217Zm15.07-38.71h-.09L67.13,173.85V121.47l114-45.11c-5,9.32-8.64,22.91-10.87,37.91a1.51,1.51,0,0,0-.09.62v.18a240.61,240.61,0,0,0,0,65v.17a3.19,3.19,0,0,1,.09.63c2.14,15,5.79,28.5,10.87,37.91Zm11.92-93.5a29.34,29.34,0,0,1,0,57.81A242,242,0,0,1,176.07,118.62Zm44.31,28.86c0,21.4-2.67,41.47-7.55,56.47-4.35,13.5-10.12,21.58-15.45,21.58a7.56,7.56,0,0,1-4.53-1.78l-.26-.18c-3.82-3.19-7.64-10-10.75-19.53A132.1,132.1,0,0,1,177,182.91a35.82,35.82,0,0,0,0-70.68,142.29,142.29,0,0,1,4.88-21.13c3.11-9.5,6.84-16.34,10.66-19.45.09-.08.26-.17.35-.26a7.53,7.53,0,0,1,4.44-1.78c5.33,0,11.1,8.08,15.45,21.58C217.71,106,220.38,126.08,220.38,147.48Z"></path><path class="cls-1" d="M151.12,21.22H237.6a3.11,3.11,0,1,0,0-6.21H151.14a3.23,3.23,0,0,0-3.27,2.66A3.16,3.16,0,0,0,151.12,21.22Z"></path></g></g></svg>