<svg xmlns="http://www.w3.org/2000/svg" width="277" height="137" viewBox="0 0 277 137" fill="none"><g clip-path="url(#clip0_566_279)"><g clip-path="url(#clip1_566_279)"><path d="M126.155 85.5421C124.786 87.5364 123.158 89.0069 121.273 89.9336C119.308 90.7796 117.144 91.2027 114.783 91.2027C109.166 91.2027 104.74 89.3091 101.485 85.5421C98.1506 81.8356 96.4834 76.7793 96.4834 70.313C96.4834 63.9273 98.1109 58.8912 101.366 55.1846C104.78 51.3371 109.285 49.4233 114.902 49.4233C119.744 49.4233 123.773 50.6119 126.949 53.009C129.489 55.0839 131.196 57.6624 132.05 60.7646C132.347 61.8524 131.613 62.9402 130.502 62.9402H127.048C125.46 62.9402 124.269 62.215 123.515 60.7444C122.979 59.8178 122.225 58.9717 121.233 58.2063C119.705 57.1386 117.7 56.5947 115.199 56.5947C111.944 56.5947 109.364 57.7832 107.459 60.1804C105.573 62.7186 104.621 66.1028 104.621 70.3331C104.621 74.644 105.613 78.0283 107.578 80.4859C109.463 82.8629 112.163 84.0716 115.656 84.0716C118.236 84.0716 120.36 83.3464 122.027 81.8758C123.694 80.3449 124.766 78.2297 125.202 75.5304H120.419C119.288 75.5304 118.315 75.1275 117.521 74.3217C116.728 73.5159 116.331 72.5289 116.331 71.3806V68.7216H129.767C131.335 68.7216 132.585 70.0108 132.585 71.5821V90.2962H130.422C128.298 90.2962 126.969 89.2285 126.433 87.0731L126.155 85.5421Z" fill="white"></path><path d="M156.839 80.8081H162.515C161.682 84.0312 160.094 86.509 157.732 88.2011C155.39 89.9738 152.433 90.8601 148.861 90.8601C144.534 90.8601 141.16 89.4299 138.738 86.5896C136.317 83.8298 135.106 79.8613 135.106 74.7044C135.106 69.769 136.277 65.9215 138.639 63.1617C141.061 60.3214 144.435 58.8911 148.761 58.8911C153.306 58.8911 156.839 60.2811 159.34 63.0408C161.761 65.8812 162.972 69.8496 162.972 74.926V75.7318V76.1951C162.972 76.5778 162.932 76.8397 162.853 77.0009H143.184C143.264 79.3779 143.819 81.1506 144.891 82.319C145.883 83.5478 147.352 84.1722 149.317 84.1722C154.438 84.1521 153.108 80.8081 156.839 80.8081ZM143.184 71.8036H154.775C154.616 69.7288 154.1 68.1978 153.187 67.1906C152.195 66.1229 150.806 65.579 148.98 65.579C147.312 65.579 145.943 66.1229 144.891 67.1906C143.819 68.2784 143.264 69.8093 143.184 71.8036Z" fill="white"></path><path d="M166.028 50.5715H170.117C171.169 50.5715 172.082 50.9341 172.856 51.6593C173.61 52.3845 173.987 53.291 173.987 54.3788V88.8659C173.987 89.6515 173.352 90.276 172.598 90.276H167.437C166.663 90.276 166.048 89.6515 166.048 88.8659V50.5715H166.028Z" fill="white"></path><path d="M177.479 50.5715H181.568C182.62 50.5715 183.533 50.9543 184.307 51.7198C185.061 52.4852 185.438 53.4119 185.438 54.4795V56.8968H178.77C178.055 56.8968 177.479 56.3127 177.479 55.5875V50.5715ZM177.479 59.576H181.568C182.62 59.576 183.533 59.9588 184.307 60.7243C185.061 61.4898 185.438 62.4164 185.438 63.5042V88.9666C185.438 89.6918 184.863 90.276 184.148 90.276H178.789C178.075 90.276 177.499 89.6918 177.499 88.9666L177.479 59.576Z" fill="white"></path><path d="M214.713 59.5759V77.5849C214.713 83.0441 213.304 86.6297 210.505 88.3219C207.707 90.014 204.63 90.8601 201.296 90.8601C198.041 90.6989 195.064 89.7924 192.365 88.1003C189.666 86.4082 188.336 82.903 188.336 77.5849V61.3083C188.336 60.3414 189.11 59.5759 190.043 59.5759H194.588C195.521 59.5759 196.295 60.3414 196.295 61.3083V79.1965C196.295 81.0498 196.811 82.3994 197.882 83.2455C198.954 84.0916 200.165 84.5146 201.514 84.5146C202.884 84.5146 204.114 84.0916 205.206 83.2455C206.298 82.3994 206.853 81.0498 206.853 79.1965V63.5041C206.853 62.4364 207.211 61.5098 207.945 60.7242C208.659 59.9587 209.592 59.5759 210.724 59.5759H214.713Z" fill="white"></path><path d="M216.737 80.1232H222.652C223.604 80.1232 224.418 80.7477 224.736 81.6341C225.014 82.4398 225.49 83.0844 226.165 83.5679C227.296 84.3334 228.824 84.7161 230.71 84.7161C232.079 84.7161 233.25 84.4543 234.243 83.9104C235.156 83.3665 235.612 82.6413 235.612 81.7146C235.612 80.3247 234.024 79.2973 230.829 78.5923C229.459 78.3505 228.447 78.1289 227.753 77.9074C223.743 76.9001 221.044 75.7116 219.675 74.3217C218.166 72.9317 217.392 71.0986 217.392 68.782C217.392 65.8611 218.484 63.4236 220.687 61.5099C222.969 59.7372 225.927 58.8508 229.559 58.8508C233.508 58.8508 236.644 59.7372 239.006 61.5099C240.792 63.0811 241.904 65.0351 242.34 67.3719C242.499 68.2179 241.904 69.0237 241.05 69.0237H237.636C234.044 69.0237 234.898 65.0956 229.678 65.0956C227.753 65.0956 225.252 65.3776 225.252 67.8755C225.252 70.7158 237.775 71.8036 241.407 74.9059C242.836 76.2958 243.571 78.1289 243.571 80.4455C243.571 83.8298 242.36 86.4485 239.939 88.2817C237.656 89.9738 234.243 90.8199 229.698 90.8199C225.371 90.8199 222.156 89.9335 220.032 88.1608C217.829 86.3881 216.737 83.8096 216.737 80.4254V80.1232Z" fill="white"></path><path d="M62.927 65.4384L61.7617 66.6201L67.415 72.3629L68.5803 71.1811L62.927 65.4384Z" fill="#037BFC"></path><path d="M42.757 63.907C42.757 66.4855 40.7128 68.5604 38.1723 68.5604H36.2869C33.7663 68.5604 31.7021 66.4855 31.7021 63.907V61.9732C31.7021 59.4148 33.7464 57.3198 36.2869 57.3198H38.1922C40.7128 57.3198 42.7769 59.3947 42.7769 61.953V63.907H42.757Z" fill="#037BFC"></path><path d="M53.7326 52.7674C53.7326 55.3257 51.6884 57.4207 49.1479 57.4207H47.2426C44.722 57.4207 42.6777 55.3458 42.6777 52.7875V50.8335C42.6777 48.2752 44.7418 46.1802 47.2624 46.1802H49.1678C51.6884 46.1802 53.7326 48.255 53.7326 50.8134V52.7674Z" fill="#037BFC"></path><path d="M64.8863 63.907C64.8863 66.4855 62.842 68.5604 60.3016 68.5604H58.3962C55.8756 68.5604 53.8115 66.4855 53.8115 63.907V61.9732C53.8115 59.4148 55.8558 57.3198 58.3962 57.3198H60.3016C62.8221 57.3198 64.8863 59.3947 64.8863 61.9732V63.907Z" fill="#037BFC"></path><path d="M53.7326 75.2484C53.7326 77.8068 51.6884 79.9018 49.1479 79.9018H47.2426C44.722 79.9018 42.6777 77.8269 42.6777 75.2686V73.3347C42.6777 70.7764 44.7418 68.6814 47.2624 68.6814H49.1678C51.7082 68.6814 53.7525 70.7563 53.7525 73.3347V75.2484H53.7326Z" fill="#037BFC"></path><path d="M75.8618 75.2483C75.8618 77.8067 73.8176 79.9017 71.2771 79.9017H69.3718C66.8512 79.9017 64.7871 77.8268 64.7871 75.2483V73.3145C64.7871 70.7561 66.8314 68.6611 69.3718 68.6611H71.2771C73.7977 68.6611 75.8618 70.736 75.8618 73.3145V75.2483Z" fill="#FCCD06"></path><path d="M75.8618 41.7282C75.8618 44.2865 73.8176 46.3815 71.2771 46.3815H69.3718C66.8512 46.3815 64.7871 44.3067 64.7871 41.7282V39.8145C64.7871 37.236 66.8314 35.1611 69.3718 35.1611H71.2771C73.7977 35.1611 75.8618 37.236 75.8618 39.8145V41.7282Z" fill="#037BFC"></path><path d="M86.937 86.4688C86.937 89.0271 84.8928 91.1221 82.3523 91.1221H80.447C77.9264 91.1221 75.8623 89.0271 75.8623 86.4688V84.5349C75.8623 81.9766 77.9264 79.8816 80.447 79.8816H82.3523C84.8729 79.8816 86.937 81.9565 86.937 84.5349V86.4688Z" fill="#FCCD06"></path><path d="M76.0611 97.5078C76.0611 100.066 74.0168 102.161 71.4764 102.161H69.571C67.0504 102.161 64.9863 100.086 64.9863 97.5078V95.574C64.9863 93.0157 67.0306 90.9207 69.571 90.9207H71.4764C73.997 90.9207 76.0611 92.9955 76.0611 95.574V97.5078Z" fill="#FCCD06"></path><path d="M86.8374 63.907C86.8374 66.4855 84.7932 68.5604 82.2527 68.5604H80.3474C77.8268 68.5604 75.7627 66.4855 75.7627 63.907V61.9732C75.7627 59.4148 77.807 57.3198 80.3474 57.3198H82.2527C84.7932 57.3198 86.8374 59.3947 86.8374 61.9732V63.907Z" fill="#FCCD06"></path><path d="M78.6961 87.25L73.042 92.9919L74.2071 94.1739L79.8612 88.4319L78.6961 87.25Z" fill="#FCCD06"></path><path d="M56.4807 64.7104L50.8242 70.45L51.9889 71.6324L57.6454 65.8928L56.4807 64.7104Z" fill="#037BFC"></path><path d="M45.742 53.3195L40.0879 59.0615L41.253 60.2434L46.9071 54.5015L45.742 53.3195Z" fill="#037BFC"></path><path d="M78.9467 64.307L73.291 70.0474L74.4558 71.2296L80.1115 65.4893L78.9467 64.307Z" fill="#FCCD06"></path><path d="M73.5203 76.175L72.3691 77.3636L78.0256 83.1047L79.1767 81.9162L73.5203 76.175Z" fill="#FCCD06"></path><path d="M51.4025 53.7058L50.2373 54.8877L55.8914 60.6297L57.0565 59.4477L51.4025 53.7058Z" fill="#037BFC"></path></g></g><defs><clipPath id="clip0_566_279"><rect width="277" height="137" fill="white"></rect></clipPath><clipPath id="clip1_566_279"><rect width="239" height="67" fill="white" transform="translate(19 35)"></rect></clipPath></defs></svg>