<svg xmlns="http://www.w3.org/2000/svg" width="277" height="137" viewBox="0 0 277 137" fill="none"><path fill-rule="evenodd" clip-rule="evenodd" d="M110.128 45.7437C113.983 42.5813 118.637 41 124.089 41C129.533 41 133.345 42.5813 135.525 45.7437C137.705 48.906 137.992 53.5427 136.386 59.6534L131.488 78.2727C129.88 84.3869 127.154 89.0244 123.31 92.185C119.465 95.3457 114.818 96.9261 109.367 96.9261C103.917 96.9261 100.095 95.3457 97.9031 92.185C95.7109 89.0244 95.4194 84.3869 97.0289 78.2727L101.927 59.6534C103.54 53.5427 106.274 48.906 110.128 45.7437ZM116.518 84.7134C117.719 83.4985 118.694 81.4683 119.442 78.6225L124.519 59.3036C125.268 56.4631 125.36 54.4337 124.796 53.2155C124.232 51.9971 123.081 51.3881 121.341 51.3881C120.523 51.3755 119.711 51.531 118.952 51.8448C118.194 52.1588 117.506 52.6249 116.928 53.2155C115.706 54.4284 114.721 56.458 113.973 59.3036L108.891 78.6225C108.147 81.4647 108.062 83.4949 108.634 84.7134C109.207 85.9315 110.363 86.5407 112.104 86.5407C112.923 86.557 113.737 86.4033 114.496 86.0891C115.254 85.775 115.943 85.3069 116.518 84.7134ZM68.749 95.8527H94.7508C94.482 95.0958 94.3308 93.653 94.1472 91.9022C93.9107 89.6463 93.6205 86.8788 92.9564 84.4079L80.4031 91.1976L94.8786 42.0963H82.8889L68.749 95.8527ZM205.332 45.7437C203.151 42.5831 199.334 41.0019 193.883 41.0002C188.43 40.9983 183.779 42.5796 179.93 45.7437C176.071 48.906 173.337 53.5427 171.728 59.6534L166.833 78.2727C165.224 84.3869 165.515 89.0244 167.707 92.185C169.899 95.3457 173.716 96.9305 179.16 96.9391C184.611 96.9391 189.259 95.3588 193.103 92.1981C196.948 89.0375 199.673 84.4001 201.282 78.2858L206.179 59.6664C207.794 53.5469 207.511 48.906 205.332 45.7437ZM189.244 78.6225C188.495 81.4683 187.52 83.4985 186.319 84.7134C185.744 85.3072 185.055 85.7755 184.297 86.0897C183.538 86.4037 182.725 86.5573 181.906 86.5407C180.165 86.5407 179.008 85.9317 178.435 84.7134C177.863 83.4949 177.949 81.4647 178.692 78.6225L183.774 59.3036C184.523 56.458 185.508 54.4287 186.731 53.2155C187.308 52.6247 187.997 52.1586 188.755 51.8446C189.512 51.5306 190.324 51.3753 191.143 51.3881C192.882 51.3881 194.034 51.9971 194.6 53.2155C195.165 54.4337 195.073 56.4632 194.32 59.3036L189.244 78.6225ZM151.418 62.2544L165.091 42.0896H178.403L149.934 68.9664H161.07L164.264 95.8459H151.174L149.332 70.1909L142.583 95.8459H130.765L144.905 42.0896H156.723L151.418 62.2544Z" fill="white"></path><path d="M211.981 96.9934C211.239 97.0331 210.499 96.8897 209.821 96.5757C209.144 96.2614 208.548 95.7855 208.086 95.1872C207.658 94.5507 207.378 93.8222 207.265 93.0568C207.153 92.2918 207.212 91.5102 207.436 90.7719C207.932 89.0549 208.957 87.5518 210.358 86.4903C211.708 85.2214 213.464 84.5073 215.29 84.4832C216.031 84.4329 216.773 84.5785 217.443 84.9064C218.114 85.2342 218.691 85.7334 219.122 86.3564C219.554 86.9907 219.836 87.7197 219.948 88.4857C220.061 89.2516 219.999 90.0341 219.769 90.7719C219.265 92.5212 218.246 94.0647 216.849 95.1872C215.475 96.3482 213.756 96.986 211.981 96.9934ZM217.711 77.4562C217.543 77.7089 217.262 77.8603 216.964 77.8603C216.388 77.8603 215.961 77.3193 216.082 76.7468L222.524 46.4927C223.198 43.3252 225.95 41.0654 229.131 41.0654C234.551 41.0654 237.77 47.236 234.733 51.8099L217.711 77.4562Z" fill="white"></path><path d="M63.9238 41.0064C64.6657 40.967 65.4059 41.1101 66.0834 41.4243C66.7606 41.7384 67.3556 42.2143 67.8187 42.8126C68.2459 43.4493 68.5264 44.1779 68.639 44.943C68.7515 45.7082 68.6931 46.4896 68.468 47.2281C67.9724 48.9449 66.9467 50.4482 65.5468 51.5097C64.196 52.7784 62.4406 53.4925 60.6131 53.5167C59.8727 53.5671 59.1321 53.4214 58.4617 53.0934C57.7914 52.7656 57.2135 52.2664 56.783 51.6434C56.3515 51.009 56.0681 50.2804 55.9556 49.5143C55.8429 48.7482 55.904 47.9657 56.134 47.2281C56.6378 45.4788 57.6591 43.9351 59.0552 42.8126C60.4284 41.6516 62.1477 41.0137 63.9238 41.0064ZM58.1934 60.5439C58.3611 60.2912 58.6411 60.1398 58.9406 60.1398C59.5158 60.1398 59.9441 60.6806 59.8221 61.2532L53.3804 91.5071C52.7059 94.6746 49.9547 96.9344 46.7727 96.9344C41.3528 96.9344 38.1358 90.7638 41.1714 86.1901L58.1934 60.5439Z" fill="white"></path></svg>