<svg xmlns="http://www.w3.org/2000/svg" width="277" height="137" viewBox="0 0 277 137" fill="none"><g clip-path="url(#clip0_566_343)"><path d="M76.8745 13.6758C72.2829 15.1241 68.7545 18.3103 67.1595 22.462C66.2895 24.731 66.2412 26.7103 66.2412 68.9999C66.2412 111.386 66.2895 113.269 67.1595 115.586C68.3679 118.724 71.7029 122.2 74.8445 123.6L77.3579 124.759H138.5H199.641L202.155 123.6C205.296 122.2 208.631 118.724 209.84 115.586C210.71 113.269 210.758 111.386 210.758 68.9999C210.758 26.6137 210.71 24.731 209.84 22.4137C208.631 19.2758 205.296 15.7999 202.155 14.3999L199.641 13.2413L139.225 13.1448C91.4229 13.0965 78.4212 13.193 76.8745 13.6758ZM146.136 33.0827C147.538 33.7103 149.665 35.0137 150.873 35.9792L153 37.7654L156.625 37.1379C161.361 36.3172 164.745 36.6551 166.291 38.1034C168.805 40.4689 167.113 43.8965 161.265 48.2413C159.38 49.6413 157.833 50.9448 157.833 51.1379C157.833 51.331 159.331 52.5861 161.216 53.9379C164.986 56.7379 167.5 59.8275 167.5 61.7585C167.5 64.8965 163.295 66.2482 156.963 65.1379L153.483 64.5585L150.825 66.9723C144.106 73.1516 134.391 73.1516 127.673 67.0206L125.063 64.6551L120.471 65.2344C116.846 65.6689 115.445 65.6689 113.898 65.1861C111.433 64.462 110.273 62.8689 110.708 60.793C111.095 59.0551 115.203 54.8068 118.441 52.731C119.65 52.0068 120.616 51.2827 120.568 51.1379C120.568 50.993 118.828 49.6413 116.701 48.0965C106.89 40.9034 109.258 35.2551 121.341 37.1379L125.353 37.7654L127.48 36.0758C133.231 31.393 139.95 30.2827 146.136 33.0827ZM98.2862 81.0206C102.395 83.1448 104.183 86.4275 104.183 91.7861C104.183 95.9861 103.168 98.4965 100.655 100.717C98.2862 102.793 95.9662 103.469 92.1962 103.131C88.1362 102.841 85.6229 101.152 83.7862 97.531C82.2879 94.6344 81.9979 90.6758 82.9645 87.1999C83.5929 84.8344 86.0095 82.131 88.4745 81.0206C91.1329 79.8137 95.9179 79.8137 98.2862 81.0206ZM166.92 81.6482C167.983 82.3723 169.53 84.0137 170.255 85.2689C171.463 87.2965 171.608 88.0689 171.608 91.6896C171.608 95.3103 171.463 96.0827 170.255 98.1103C168.418 101.2 165.711 102.841 161.941 103.179C158.316 103.469 155.948 102.745 153.676 100.717C150.921 98.3516 149.906 95.8896 149.906 91.6413C149.858 86.6689 151.26 83.8689 154.933 81.6482C157.398 80.1516 157.833 80.0551 161.265 80.1999C164.261 80.2965 165.276 80.5861 166.92 81.6482ZM189.926 81.262C192.44 82.3241 193.6 84.1585 193.6 87.1516C193.6 89.1792 193.358 89.9999 192.343 91.2068L191.038 92.7034L192.101 93.8137C192.826 94.5861 193.31 95.9861 193.648 98.2551C193.89 100.09 194.18 101.876 194.325 102.165C194.47 102.648 193.696 102.793 191.425 102.793H188.331L187.993 99.8482C187.558 95.9379 186.785 95.0689 183.353 94.731L180.55 94.4413V98.6413V102.793H177.65H174.75V91.6896V80.5861H181.516C186.205 80.5861 188.815 80.7792 189.926 81.262ZM123.516 81.8896C125.45 83.193 125.885 84.062 125.933 86.331C125.933 88.0206 125.643 88.793 124.628 89.8551C123.903 90.5792 123.613 91.2068 123.951 91.2068C124.241 91.2068 125.063 91.7861 125.691 92.462C127.093 94.0068 127.335 97.6275 126.175 99.8482C124.918 102.31 122.985 102.793 114.865 102.793H107.566V91.931V81.0689H114.961C121.1 81.0689 122.55 81.2137 123.516 81.8896ZM147.683 83.193C147.683 85.2689 147.441 85.6068 142.173 91.5448L136.663 97.7241L142.415 97.8689L148.166 98.0137V100.379V102.793H138.258H128.35V100.669C128.35 98.6896 128.64 98.2551 133.908 92.2206L139.515 85.8965H134.391H129.316V83.4827V81.0689H138.5H147.683V83.193Z" fill="white"></path><path d="M136.18 35.4C134.585 37.1862 132.893 41.2896 132.603 43.8965C132.458 45.2965 132.652 45.5862 133.667 45.8758C134.343 46.0689 135.6 46.2138 136.47 46.262L138.017 46.3103V40.0344C138.017 36.5586 137.92 33.7586 137.823 33.7586C137.727 33.7586 137.002 34.4827 136.18 35.4Z" fill="white"></path><path d="M140.288 34.0965C140.094 34.2413 139.949 37.0896 139.949 40.4206V46.4551L142.656 46.1654C144.154 46.0206 145.604 45.6827 145.798 45.4896C146.281 45.0068 145.314 41.0965 143.961 38.1034C142.946 35.8344 140.819 33.5171 140.288 34.0965Z" fill="white"></path><path d="M130.718 36.2689C128.543 37.8137 126.707 39.6482 125.885 41.0965C125.547 41.7723 125.837 42.1585 127.625 43.1723C129.945 44.5723 130.767 44.4275 130.767 42.7861C130.767 41.9171 131.637 39.5999 133.522 35.3034C133.957 34.3378 132.942 34.6275 130.718 36.2689Z" fill="white"></path><path d="M145.798 37.3792C146.523 38.8757 147.297 41.0481 147.49 42.2067C147.635 43.4136 148.022 44.3792 148.263 44.3792C148.892 44.3792 150.583 43.4619 151.937 42.3998L153.048 41.5309L151.018 39.3102C148.747 36.8481 147.007 35.4964 145.46 35.0136C144.493 34.724 144.493 34.8205 145.798 37.3792Z" fill="white"></path><path d="M113.85 40.5655C113.85 41.2897 118.49 45.9242 120.085 46.7448C120.955 47.2276 121.148 47.1793 121.39 46.4552C121.535 45.9724 122.066 44.5242 122.55 43.2207C123.081 41.9173 123.42 40.7104 123.275 40.6138C123.178 40.469 121.003 40.2759 118.441 40.131C114.816 39.9379 113.85 40.0345 113.85 40.5655Z" fill="white"></path><path d="M155.997 40.3723C155.127 40.5171 154.933 40.8068 155.223 41.3861C155.417 41.8206 155.9 43.2206 156.335 44.4757C156.77 45.7309 157.35 46.793 157.688 46.793C158.51 46.793 164.117 41.4826 164.117 40.7102C164.117 40.1792 163.295 40.0343 160.637 40.0826C158.703 40.1309 156.625 40.2757 155.997 40.3723Z" fill="white"></path><path d="M153.242 43.8965C153.048 44.1862 151.84 44.9586 150.487 45.6344C148.795 46.5034 148.167 47.0827 148.36 47.5655C148.505 48 148.65 49.2068 148.65 50.2689V52.2L151.937 50.4137C153.725 49.4482 155.223 48.5793 155.32 48.4827C155.562 48.2413 154.353 43.8965 153.918 43.6551C153.725 43.5103 153.435 43.6068 153.242 43.8965Z" fill="white"></path><path d="M123.565 46.0205C123.275 47.2274 123.033 48.2895 123.033 48.4343C123.033 48.724 128.978 52.1033 129.462 52.1033C129.607 52.1033 129.8 50.9447 129.897 49.5447L130.042 47.0343L127.48 45.4412C126.078 44.6205 124.725 43.8964 124.532 43.8964C124.29 43.8964 123.855 44.8619 123.565 46.0205Z" fill="white"></path><path d="M131.732 50.5586V53.4069L134.294 54.5172C135.647 55.0965 137.097 55.6758 137.436 55.8207C137.871 56.0138 138.016 55.1448 138.016 52.4413C138.016 50.4138 137.871 48.6758 137.677 48.5793C137.436 48.4344 136.034 48.1931 134.536 48.0482L131.732 47.7103V50.5586Z" fill="white"></path><path d="M143.332 48.0482C139.756 48.6758 139.949 48.4344 139.949 52.1034C139.949 53.9379 140.094 55.531 140.336 55.6275C140.529 55.7724 142.027 55.2413 143.719 54.4689L146.764 53.1172L146.619 50.5586C146.474 47.8068 146.184 47.6137 143.332 48.0482Z" fill="white"></path><path d="M151.695 54.1793C148.843 55.6759 148.166 56.2069 148.166 57.1724C148.166 57.8 148.07 58.6207 147.925 58.9586C147.538 59.8759 152.758 61.4207 153.435 60.6C154.256 59.5862 155.465 55.1448 155.32 53.7448L155.175 52.3448L151.695 54.1793Z" fill="white"></path><path d="M122.888 54.131C123.516 57.5104 124.725 60.5517 125.546 60.6966C125.981 60.7931 127.238 60.6 128.301 60.3104C130.186 59.8276 130.283 59.6828 130.283 57.9931C130.283 56.2552 130.186 56.1586 126.755 54.3724C124.821 53.4069 123.081 52.5862 122.888 52.5862C122.695 52.5862 122.695 53.3104 122.888 54.131Z" fill="white"></path><path d="M118.344 56.8343C115.492 59.1516 113.752 61.1792 114.187 61.855C114.429 62.3378 122.307 62.1447 122.791 61.7102C122.887 61.6137 122.452 60.0206 121.872 58.2343L120.809 54.9033L118.344 56.8343Z" fill="white"></path><path d="M156.48 58.4757C155.9 60.1171 155.561 61.5653 155.658 61.7102C155.803 61.8067 157.736 62.0481 160.008 62.1447C164.696 62.386 165.035 62.0481 162.666 59.4895C161.168 57.8964 158.171 55.4826 157.736 55.4826C157.591 55.4826 157.011 56.8343 156.48 58.4757Z" fill="white"></path><path d="M144.831 57.6068C143.816 58.1861 143.768 58.2827 144.541 58.5723C145.508 58.9103 146.426 58.2827 146.185 57.5103C146.04 57.1723 145.556 57.2206 144.831 57.6068Z" fill="white"></path><path d="M132.216 58.1378C132.216 58.6206 132.554 58.8619 133.086 58.7654C134.101 58.5723 134.004 57.7033 132.989 57.5102C132.506 57.4137 132.216 57.6551 132.216 58.1378Z" fill="white"></path><path d="M135.599 61.2757C133.956 61.9033 133.473 62.3861 133.569 63.0136C133.859 64.5585 135.454 67.2619 136.759 68.4688L138.016 69.6274V64.993C138.016 62.4343 137.968 60.3102 137.919 60.3585C137.823 60.4068 136.808 60.793 135.599 61.2757Z" fill="white"></path><path d="M139.949 64.7999C139.949 67.0689 140.143 69.0482 140.384 69.2413C141.013 69.5792 143.526 66.393 144.444 64.1241L145.218 62.193L143.913 61.7103C143.188 61.4206 142.028 61.0827 141.303 60.9378L139.949 60.6482V64.7999Z" fill="white"></path><path d="M128.929 63.3518C128.059 63.5931 127.431 64.0759 127.527 64.3173C127.769 65.0414 133.086 68.7587 133.424 68.4207C133.762 68.1311 131.297 62.7242 130.862 62.7724C130.669 62.8207 129.799 63.0621 128.929 63.3518Z" fill="white"></path><path d="M145.847 65.6688C144.977 67.455 144.687 68.5171 145.073 68.5171C145.75 68.5171 150.487 65.0895 150.777 64.3654C150.873 64.0757 150.1 63.6412 149.085 63.3516L147.2 62.8688L145.847 65.6688Z" fill="white"></path><path d="M91.085 85.6552C89.3933 86.5725 88.475 88.938 88.5233 92.0276C88.5233 94.8759 89.635 96.8069 91.81 97.869C93.7916 98.8345 96.4016 97.7725 97.5133 95.5518C99.0116 92.6069 98.3833 87.6828 96.305 85.9931C95.145 85.0276 92.4866 84.8345 91.085 85.6552Z" fill="white"></path><path d="M158.945 85.4138C154.837 87.0551 154.885 96.0344 159.042 97.7724C161.12 98.5931 162.667 98.3034 164.165 96.7103C165.083 95.6965 165.325 94.8275 165.47 91.8827C165.663 88.3586 165.663 88.3103 163.972 86.6207C162.232 84.8827 160.975 84.5931 158.945 85.4138Z" fill="white"></path><path d="M180.55 88.0689V90.7241H183.111C186.253 90.7241 187.8 89.7586 187.8 87.8276C187.8 85.9931 186.688 85.4138 183.256 85.4138H180.55V88.0689Z" fill="white"></path><path d="M113.366 87.3448V89.2759H115.976C119.311 89.2759 120.133 88.9379 120.133 87.6345C120.133 85.9448 119.166 85.4138 116.17 85.4138H113.366V87.3448Z" fill="white"></path><path d="M113.366 96.0344V98.4482H115.928C118.925 98.4482 120.81 97.5793 121.003 96.1793C121.245 94.3931 119.891 93.6207 116.46 93.6207H113.366V96.0344Z" fill="white"></path></g><defs><clipPath id="clip0_566_343"><rect width="145" height="112" fill="white" transform="translate(66 13)"></rect></clipPath></defs></svg>