<svg xmlns="http://www.w3.org/2000/svg" width="1536" height="979" viewBox="0 0 1536 979" fill="none"><path opacity="0.02" fill-rule="evenodd" clip-rule="evenodd" d="M85.0294 7.53255C79.7638 14.4156 79.5414 17.9129 79.5414 93.4683C79.5414 159.632 78.8796 173.545 75.3956 180.474C68.6528 193.892 58.4526 196.469 12.1187 196.469C-13.5289 196.469 -29 197.493 -29 199.192C-29 200.897 -12.8988 201.913 14.0195 201.911C63.2019 201.908 72.2056 199.312 80.1979 182.85C84.2775 174.447 84.8282 164.162 84.8308 96.1893C84.8335 48.7299 85.8792 17.0577 87.5496 13.8463C89.0427 10.9781 93.5088 6.81619 97.4772 4.60174L104.691 0.573251L97.6043 0.464299C93.0138 0.393481 88.5795 2.88575 85.0294 7.53255ZM120.639 4.15776C135.059 10.6213 135.133 11.3649 135.175 152.335C135.205 250.037 136.025 283.891 138.485 288.816C149.4 310.666 181.803 312.194 192.279 291.352C194.672 286.593 196.03 275.241 196.041 259.933C196.065 219.732 202.394 207.364 222.94 207.364C229.535 207.364 235.248 209.535 240.22 213.934L247.648 220.501L248.972 298.6L250.296 376.697L258.942 384.639C265.828 390.964 270.058 392.582 279.723 392.582C289.995 392.582 293.241 391.16 300.86 383.321L309.861 374.06V224.022V73.985L317.533 65.1517C323.82 57.9091 327.159 56.3157 336.051 56.3157C343.768 56.3157 348.618 58.0862 352.867 62.4497C358.57 68.3086 358.895 71.046 360.161 123.803C362.098 204.662 358.887 201.916 451.529 201.916H513.948L512.415 210.768C508.823 231.513 526.899 248.21 552.959 248.215C565.013 248.221 568.184 249.378 574.8 256.182C583.136 264.76 584.516 273.462 579.375 285.068C572.957 299.561 569.802 299.973 465.065 299.973H368.508L360.412 306.984C348.684 317.135 345.007 331.765 350.948 344.643C359.546 363.29 352.798 362.62 532.106 362.62H693.727V461.829V561.04L686.873 569.419C681.372 576.146 677.978 577.8 669.665 577.8H659.311V510.931C659.311 439.379 658.35 433.33 645.5 424.072C642.257 421.732 634.386 419.82 628.012 419.82C618.365 419.82 614.918 421.37 607.423 429.081L598.422 438.342V558.548C598.422 686.485 597.792 693.428 585.583 700.153C578.824 703.873 565.201 703.944 558.566 700.289C545.806 693.264 545.475 689.726 545.475 559.959V438.342L536.474 429.081C528.855 421.242 525.609 419.82 515.338 419.82C505.672 419.82 501.442 421.438 494.556 427.762C486.042 435.585 485.889 436.143 484.546 464.514C483.27 491.426 482.701 493.817 475.884 500.834L468.585 508.343L327.01 509.114C190.508 509.86 185.435 509.705 185.435 504.824C185.435 502.037 188.506 496.789 192.258 493.155C198.895 486.732 200.517 486.515 251.778 485.191L304.479 483.829L313.125 474.925C320.527 467.304 321.774 464.103 321.774 452.74C321.774 443.31 320.239 437.685 316.479 433.349C304.72 419.779 305.284 419.82 132.573 419.82C29.8453 419.82 -29 420.784 -29 422.465C-29 424.14 31.7038 425.387 136.401 425.869L301.802 426.629L308.561 433.586C312.278 437.41 316.008 444.903 316.85 450.234C318.134 458.389 317.104 461.396 310.372 469.156L302.366 478.381L249.464 479.743C190.823 481.252 188.88 481.854 181.065 500.853L177.422 509.705H74.2123C7.16811 509.705 -29 510.658 -29 512.429C-29 514.199 7.6208 515.153 75.5704 515.153C169.663 515.153 180.141 515.588 180.141 519.511C180.141 521.908 184.191 528.036 189.142 533.13C197.253 541.475 199.62 542.39 213.1 542.39C229.27 542.39 241.911 547.528 246.245 555.86C250.96 564.922 249.335 576.939 242.218 585.639L235.465 593.897L135.663 594.701C45.4594 595.428 35.1983 595.968 28.9876 600.309C16.2273 609.232 11.5971 632.761 20.1375 645.304C29.8771 659.612 28.7625 659.514 180.008 659.514H320.45V747.909C320.45 808.208 319.492 838.467 317.435 843.111C313.615 851.737 298.374 859.394 289.553 857.114C285.91 856.174 280.057 852.445 276.541 848.831C271.08 843.212 270.151 839.649 270.151 824.339C270.151 788.646 258.677 776.664 224.484 776.648L203.967 776.637V743.995C203.967 712.233 203.771 711.127 196.687 702.969C183.643 687.95 157.029 689.887 147.79 706.526C145.23 711.135 144.079 743.052 143.078 837.026L141.754 961.422L135.469 968.302C132.012 972.088 126.651 975.695 123.556 976.321C119.638 977.111 120.403 977.568 126.071 977.827C131.71 978.083 136.187 976.038 140.632 971.173L147.049 964.146L147.811 873.116L148.576 782.084H173.522H198.466L199.231 871.774C199.967 957.973 200.213 961.765 205.553 969.149C209.455 974.548 213.789 977.043 220.113 977.53L229.117 978.225L220.415 974.213C204.647 966.948 203.805 961.253 204.592 867.198L205.291 783.446H227.076C247.108 783.446 249.427 784.026 255.863 790.654C262.039 797.016 263.058 800.726 264.538 822.263C266.312 848.063 268.591 853.249 281.079 859.892C290.609 864.964 297.694 864.825 308.916 859.345C325.975 851.015 325.745 853.031 325.745 712.805V586.058L333.025 577.988C343.514 566.36 359.176 565.644 369.545 576.315L376.045 583V666.288C376.045 758.172 376.987 764.6 391.59 772.371C402.092 777.958 416.87 777.794 425.476 771.995C436.179 764.777 439.581 752.757 439.581 722.153C439.581 690.957 442.533 683.42 456.625 678.637C467.389 674.982 476.506 678.164 484.239 688.277C489.756 695.492 489.881 697.805 489.881 791.985V888.312H382.398H274.916L265.915 897.573C257.155 906.586 256.914 907.425 256.914 928.984C256.914 956.35 252.421 968.705 240.466 974.213L231.764 978.225L240.768 977.53C255.736 976.375 260.504 966.725 262.148 934.263C263.453 908.474 263.958 906.521 270.961 900.33L278.389 893.76H383.923H489.46L490.333 928.96C491.146 961.836 491.628 964.62 497.622 971.178C502.064 976.038 506.546 978.083 512.182 977.827C517.85 977.568 518.615 977.111 514.697 976.321C511.602 975.695 506.241 972.088 502.784 968.302L496.499 961.422L495.175 826.128C493.725 677.796 494.286 682.644 477.592 674.495C466.941 669.295 462.391 669.357 451.116 674.862C437.58 681.47 434.286 690.451 434.286 720.75C434.286 749.018 430.424 763.304 421.447 768.248C414.59 772.023 401.036 772.023 394.179 768.248C382.547 761.841 381.339 752.03 381.339 663.896V580.943L373.556 572.935C359.994 558.981 340.197 559.85 327.069 574.978C322.441 580.308 321.665 585.682 320.908 617.573L320.04 654.066H181.128C32.6436 654.066 30.9546 653.922 24.0264 640.597C18.9409 630.821 20.8046 617.186 28.2781 609.494L35.2592 602.314H130.286C233.45 602.314 237.432 601.807 248.527 587.295C259.188 573.355 253.957 549.314 238.47 541.075C234.197 538.803 223.999 536.943 215.808 536.943C202.874 536.943 199.893 535.894 193.174 528.981C188.917 524.601 185.435 519.699 185.435 518.086C185.435 516.027 226.557 515.153 323.182 515.153C470.227 515.153 471.641 515.033 483.233 501.659C487.543 496.682 488.742 490.404 489.852 466.993C491.136 439.834 491.575 438.075 498.633 431.834C509.257 422.44 522.486 422.985 532.442 433.229L540.18 441.191V561.334C540.18 690.282 540.594 694.637 553.727 704.099C561.767 709.893 580.878 709.787 589.612 703.901C603.378 694.618 603.717 691.186 603.717 561.334V441.191L611.455 433.229C621.412 422.985 634.641 422.44 645.264 431.837L652.693 438.41L654.017 565.529L655.34 692.651L663.986 700.597C678.409 713.851 704.475 710.051 711.742 693.637C713.521 689.622 714.906 674.582 714.906 659.298C714.906 629.901 718.654 615.71 727.745 610.703C731.158 608.827 756.599 607.762 798.122 607.762H863.157V643.307C863.157 681.277 865.463 690.554 876.969 698.843C889.305 707.733 914.196 702.163 920.825 689.026C925.471 679.82 926.278 672.621 926.498 638.404L926.694 607.762H1061.91H1197.13L1204.87 615.723C1217.41 628.626 1214.86 647.186 1199.42 655.401C1193.39 658.612 1181.48 659.514 1145.1 659.514C1093.59 659.514 1086.22 661.322 1078.96 675.767C1072.01 689.595 1073.73 702.386 1083.95 712.9C1091.84 721.025 1094.61 722.161 1106.53 722.161C1122.56 722.161 1136.91 727.677 1140.92 735.371C1144.59 742.426 1144.59 756.372 1140.92 763.426C1134.77 775.245 1124.75 776.637 1045.78 776.637C962.748 776.637 958.539 777.432 951.634 794.434C946.869 806.168 946.911 810.499 951.886 821.288C960.445 839.845 955.357 839.284 1115.33 839.284C1213.99 839.284 1262.13 840.237 1267.89 842.302C1277.02 845.579 1284.09 856.656 1284.09 867.707C1284.09 871.501 1280.61 878.61 1276.36 883.502L1268.64 892.398L1146.46 893.027C1028.32 893.635 1024.03 893.839 1016.71 899.202C1001.2 910.563 1000.7 934.039 1015.66 948.516C1022.2 954.844 1024.03 955.086 1074.95 956.407C1126.04 957.731 1127.67 957.952 1134.31 964.372C1138.06 968.005 1141.13 972.6 1141.13 974.586C1141.13 976.572 1142.8 978.198 1144.85 978.198C1152.3 978.198 1144.96 963.898 1133.26 955.601C1127.66 951.635 1119.52 950.96 1077.21 950.96C1028.32 950.96 1027.6 950.875 1019.87 944.18C1015.56 940.451 1011.41 934.018 1010.64 929.88C1008.88 920.429 1014.58 906.017 1021.6 902.149C1025.2 900.169 1065.12 899.208 1143.69 899.208C1270.36 899.208 1272.32 898.998 1283.64 884.189C1290.45 875.284 1291.09 861.48 1285.23 849.831C1277.2 833.839 1277.16 833.837 1117.75 833.837C973.435 833.837 972.363 833.796 965.239 828.032C955.343 820.021 952.315 810.701 955.939 799.405C961.456 782.199 962.057 782.084 1047.08 782.079C1132.98 782.076 1138.62 781.033 1146.42 763.759L1150.39 754.964L1233.3 754.906C1287.73 754.866 1318.04 755.857 1321.55 757.788C1333.27 764.244 1334.39 773.714 1334.39 866.571C1334.39 961.294 1334.89 965.012 1348.87 972.709C1364.11 981.098 1384.02 974.695 1391.93 958.87C1394.38 953.956 1395.21 921.161 1395.24 827.572C1395.28 690.84 1395.28 690.794 1410.86 684.156C1421.31 679.7 1433.62 682.739 1440.25 691.415C1445.17 697.854 1445.57 702.4 1445.57 751.398C1445.57 794.824 1446.36 806.111 1449.9 813.798C1460.54 836.868 1494.14 836.868 1504.78 813.798C1508.33 806.103 1509.11 794.788 1509.11 750.905C1509.11 697.974 1509.18 697.328 1515.5 690.824C1523.85 682.23 1533.77 679.869 1543.7 684.104C1555.48 689.124 1559.41 699.316 1559.41 724.885C1559.41 740.41 1560.74 749.527 1563.91 755.664C1567.27 762.168 1568.66 763.206 1569.37 759.755C1569.9 757.213 1569.07 752.697 1567.52 749.72C1565.97 746.743 1564.71 734.364 1564.71 722.205C1564.71 696.9 1560.73 686.278 1548.91 679.988C1539.04 674.74 1529.48 674.74 1519.61 679.988C1505.47 687.514 1503.82 694.855 1503.82 750.219C1503.82 779.875 1502.62 803.875 1500.88 808.998C1496.15 822.955 1479.89 829.225 1465.68 822.563C1452.88 816.565 1450.87 806.552 1450.87 748.911C1450.87 691.208 1450.13 687.999 1434.96 679.926C1425.21 674.74 1415.61 674.759 1405.78 679.988C1389.91 688.429 1389.98 687.776 1389.98 827.101V954.103L1382.24 962.065C1371.77 972.834 1356.69 973.164 1346.66 962.846L1339.68 955.664V866.064C1339.68 769.133 1338.91 763.034 1325.58 754.04C1319.45 749.916 1309.43 749.399 1235.61 749.399H1152.52L1148.47 738.782C1142.96 724.345 1133.87 718.95 1111.51 716.841C1095.48 715.33 1091.89 713.998 1086.51 707.572C1078.19 697.609 1078.23 684.014 1086.62 673.966L1093.01 666.323L1145.53 664.961C1202.19 663.493 1207.03 662.338 1213.9 648.673C1220.84 634.877 1219.11 622.081 1208.9 611.575L1199.9 602.314H1063.3H926.694V530.504V458.696L933.672 451.514L940.653 444.334H1001.3H1061.95L1068.45 451.021C1074.24 456.975 1076.62 464.893 1075.04 472.934C1074.74 474.432 1075.31 482.334 1076.3 490.494C1079.6 517.678 1100.84 530.817 1122.69 519.192C1138.55 510.751 1138.48 511.405 1138.48 372.08V245.077L1146.22 237.116C1156.9 226.128 1170.36 226.128 1181.04 237.116L1188.78 245.077V329.322C1188.78 412.525 1188.86 413.68 1194.83 422.821C1198.62 428.639 1204.85 433.504 1211.59 435.923C1221.33 439.415 1223.27 439.289 1232.69 434.561C1248.33 426.703 1252.31 416.08 1252.31 382.158C1252.32 354.702 1252.5 353.839 1260.06 346.068C1270.01 335.823 1283.24 335.279 1293.87 344.678L1301.29 351.248L1302.62 486.997C1304.04 633.417 1303.82 631.276 1318.45 639.058C1328.25 644.269 1337.85 644.285 1347.59 639.102C1363.42 630.682 1363.51 630.154 1363.51 545.782C1363.51 463.869 1364.84 453.611 1376.35 447.276C1379.89 445.328 1413.46 444.334 1475.84 444.334C1557.77 444.334 1570 443.803 1570 440.248C1570 436.694 1558.23 436.182 1479.33 436.315C1381.3 436.481 1374.7 437.309 1365.08 450.656C1359.82 457.95 1359.47 462.507 1358.21 540.941C1357 616.431 1356.46 624.025 1351.98 629.119C1345.44 636.547 1333.22 639.014 1323.5 634.872C1307.86 628.209 1307.91 628.656 1307.91 486.553C1307.91 347.051 1307.89 346.849 1294.1 336.91C1290.86 334.57 1282.99 332.658 1276.61 332.658C1266.97 332.658 1263.52 334.208 1256.02 341.919L1247.02 351.18V378.778C1247.02 412.645 1243.27 423.742 1229.89 429.497C1218.54 434.376 1209.89 432.529 1201.61 423.461C1195.42 416.69 1195.39 416.385 1194.08 328.131L1192.75 239.592L1184.11 231.649C1171.97 220.501 1155.33 220.465 1143.26 231.559C1135.43 238.755 1134.63 241.027 1133.65 258.797L1132.59 278.182H1098.69H1064.8L1063.92 245.268L1063.03 212.351L1054.39 204.411C1047.36 197.958 1043.34 196.469 1032.94 196.469C1015.24 196.469 1004.02 191.857 999.417 182.689C991.962 167.861 996.364 152.961 1010.19 146.209C1017.58 142.603 1035.55 141.993 1134.38 141.993C1258.61 141.993 1260.84 141.758 1267.47 127.924C1275.23 111.726 1272.83 97.6084 1260.35 86.1549C1254.64 80.917 1249.68 80.6555 1131.36 79.3454L1008.3 77.9835L1001.91 70.3405C998.4 66.1377 995.525 60.2952 995.525 57.3562C995.525 52.0748 998.921 52.0203 1282.76 52.7421C1440.74 53.1425 1570 52.6822 1570 51.7179C1570 50.7537 1568.12 49.2229 1565.81 48.3132C1563.51 47.4035 1419.51 46.6599 1245.81 46.6599H929.998L928.753 31.2214C927.7 18.1472 926.222 14.6008 919.117 8.06913C912.491 1.97601 908.176 0.355347 898.589 0.355347C888.318 0.355347 885.072 1.77717 877.453 9.61625L868.452 18.8772V171.276C868.452 275.788 867.531 326.396 865.519 332.334C858.077 354.291 825.819 354.111 818.351 332.073C816.453 326.475 815.505 273.353 815.505 172.774C815.505 11.384 815.423 10.3217 802.414 3.16086C789.251 -4.08716 763.627 1.87795 758.195 13.4568C757.006 15.9872 755.418 45.4396 754.664 78.9069L753.292 139.751L745.864 146.321C738.708 152.648 736.948 152.888 697.483 152.888C656.992 152.888 656.508 152.817 654.178 146.517C652.883 143.014 648.057 136.886 643.451 132.898L635.08 125.65H501.945H368.809L367.544 98.5781C366.117 68.1097 362.723 60.0228 348.412 53.0009C336.514 47.1638 323.421 49.9829 313.633 60.4886L305.89 68.8043L304.566 221.397L303.243 373.992L295.814 380.562C284.698 390.397 270.016 389.632 261.121 378.753L254.267 370.375V297.442C254.267 226.022 254.142 224.319 248.223 215.257C244.424 209.439 238.197 204.575 231.457 202.156C221.717 198.664 219.78 198.789 210.363 203.518C194.616 211.428 190.738 221.936 190.735 256.703C190.73 284.303 190.415 285.937 183.752 292.793C174.452 302.359 159.605 302.623 149.183 293.4L141.754 286.83L140.43 151.082C139.456 51.2794 138.249 13.7973 135.872 9.52909C132.266 3.05463 126.953 0.303595 118.373 0.461575C113.565 0.551461 113.933 1.1507 120.639 4.15776ZM793.757 6.00722C810.774 12.1112 810.21 6.32319 810.21 174.67C810.21 342.164 810.186 341.9 825.756 350.183C842.524 359.104 861.966 353.294 869.418 337.133C873.265 328.793 873.747 310.715 873.747 174.738V21.7262L881.485 13.7646C887.214 7.8703 891.735 5.80294 898.897 5.80294C906.058 5.80294 910.579 7.8703 916.308 13.7646L924.046 21.7262V175.967C924.046 342.159 923.885 340.13 937.858 350.197C947.751 357.328 964.974 355.688 974.767 346.683C982.285 339.773 983.445 336.698 985.285 318.764C987.104 301.07 988.345 297.696 995.453 291.12L1003.55 283.63H1068.37H1133.19V389.994C1133.19 505.361 1132.88 507.973 1118.7 514.621C1108.17 519.557 1099.84 518.557 1091.73 511.386C1085.15 505.557 1084.22 502.552 1082.66 481.862C1079.45 439.33 1076.18 437.524 1002.41 437.524C941.686 437.524 933.434 439.074 924.838 452.099C920.486 458.694 920.017 468.45 919.4 565.543C919.03 623.968 918.733 674.361 918.738 677.529C918.76 686.722 906.254 697.647 895.714 697.647C883.862 697.647 877.363 693.858 872.45 684.082C869.048 677.314 868.452 656.79 868.452 546.476C868.452 404.245 868.55 405.171 852.655 396.714C842.791 391.465 833.224 391.465 823.36 396.714C811.076 403.251 807.563 413.413 807.563 442.43C807.563 472.784 804.383 483.927 794.17 489.358C783.199 495.198 774.622 494.288 765.409 486.31L757.263 479.258V365.442C757.263 302.844 756.503 247.722 755.577 242.95C753.427 231.892 741.445 219.498 730.784 217.306C719.327 214.947 705.539 221.511 699.09 232.395C694.174 240.689 693.745 246.042 693.737 299.292L693.727 357.172H532.146C355.011 357.172 360.984 357.714 355.35 341.088C351.618 330.068 354.421 319.908 363.324 312.2L371.155 305.42H467.712C548.843 305.42 565.51 304.761 572.036 301.288C589.924 291.771 592.778 264.435 577.365 250.264C570.771 244.2 566.686 242.773 555.938 242.773C536.916 242.773 524.948 236.871 520.185 225.145C515.444 213.47 517.236 204.575 526.049 196.046C532.397 189.902 534.637 189.607 584.73 188.297C618.449 187.415 638.786 185.77 642.421 183.626C645.505 181.804 650.03 175.983 652.473 170.688L656.913 161.059H693.936C736.217 161.059 746.203 158.281 754.547 144.199C759.439 135.943 759.892 130.545 759.9 80.1544C759.911 19.904 761.06 14.0424 774.161 7.39091C784.123 2.33555 783.62 2.37096 793.757 6.00722ZM990.23 58.3095C990.23 66.5545 996.737 75.7173 1006.14 80.7236C1012.59 84.1556 1032.25 84.793 1131.53 84.793H1249.27L1257.41 91.8449C1268.47 101.424 1269.01 118.628 1258.58 129.365L1251.6 136.545H1133.89C1030.43 136.545 1015.08 137.084 1007.06 140.998C984.636 151.945 984.636 186.516 1007.06 197.463C1012.08 199.911 1022.19 201.916 1029.53 201.916C1039.82 201.916 1044.58 203.422 1050.31 208.483C1057.54 214.873 1057.76 215.908 1058.63 246.616L1059.52 278.182L1032.15 278.223C992.202 278.28 983.093 285.166 979.813 317.789C978.264 333.165 976.779 337.215 970.711 342.584C961.072 351.117 947.841 351.052 938.093 342.429L930.665 335.856L929.934 193.982L929.203 52.1074H959.717C989.703 52.1074 990.23 52.2137 990.23 58.3095ZM1476.37 105.902C1396.87 106.616 1391.59 106.976 1384.57 112.115C1375.74 118.587 1370.35 133.388 1372.75 144.613C1373.69 149.039 1378.6 156.388 1383.64 160.945L1392.81 169.231H1425.94C1460.96 169.231 1471.73 172.058 1477.26 182.7C1481.9 191.615 1480.37 203.883 1473.6 211.978L1467.22 219.621L1366.57 220.983C1269.73 222.293 1265.65 222.56 1258.46 228.035C1254.32 231.189 1249.41 238.758 1247.45 245.015C1244.29 255.074 1244.43 257.424 1248.77 266.563C1258.43 286.899 1253.6 286.346 1421.09 286.348C1518.6 286.351 1570 285.414 1570 283.63C1570 281.846 1519.23 280.906 1422.99 280.906C1266.29 280.906 1261.87 280.558 1255.18 267.696C1251.51 260.641 1251.51 246.695 1255.18 239.641C1261.55 227.381 1269.93 226.43 1371.63 226.43H1467.28L1476.28 217.169C1486.5 206.656 1488.22 193.865 1481.27 180.036C1474.49 166.545 1465.58 163.783 1428.86 163.783C1399.32 163.783 1395.26 163.195 1388.82 157.979C1378.92 149.968 1375.89 140.647 1379.52 129.352C1385.07 112.045 1385.11 112.034 1475.95 111.993C1521.12 111.974 1560.77 111.217 1564.04 110.315C1571.04 108.386 1572.13 103.565 1565.37 104.5C1562.82 104.854 1522.77 105.483 1476.37 105.902ZM639.297 136.902C649.209 144.926 652.222 154.233 648.582 165.583C643.631 181.019 636.727 182.847 583.332 182.863C537.896 182.877 535.831 183.117 525.62 189.588C515.174 196.207 514.197 196.3 453.395 196.384C369.577 196.499 368.103 195.774 368.103 154.43V131.097H500.113C630.826 131.097 632.194 131.155 639.297 136.902ZM742.822 230.393L749.321 237.078V353.051C749.321 478.896 749.573 481.293 763.919 492.905C772.425 499.79 785.953 500.588 796.749 494.844C809.016 488.318 812.858 475.982 812.858 443.116C812.858 416.099 813.292 413.678 819.248 407.549C827.595 398.961 837.512 396.594 847.429 400.821C863.258 407.565 863.157 406.89 863.157 507.589V599.59L801.606 599.743C712.862 599.966 711.48 600.797 710.069 654.935C709.251 686.381 708.843 688.506 702.294 695.604C692.475 706.246 677.66 706.047 667.049 695.133L659.311 687.171V636.92V586.669L669.893 584.925C676.016 583.92 684.104 579.851 689.086 575.269L697.698 567.354L699.022 402.101L700.345 236.852L707.774 230.279C718.027 221.206 733.945 221.258 742.822 230.393ZM43.4871 697.402C33.7846 703.487 29.2417 715.057 29.2417 733.672C29.2417 744.875 27.9631 748.41 21.5035 755.056C14.2286 762.541 12.4866 763.018 -7.61735 763.018C-21.3968 763.018 -29 764.083 -29 766.011C-29 768.041 -21.2327 768.7 -4.95411 768.054C18.3664 767.134 19.3221 766.837 26.8141 758.208C33.3742 750.652 34.5364 747.043 34.5364 734.241C34.5364 716.544 39.3678 705.429 49.0227 700.902C59.9431 695.781 68.216 697.037 76.9046 705.137L84.9393 712.628L85.5509 836.56L86.1598 960.493L92.2963 969.345C97.0616 976.22 100.315 978.173 106.857 978.091L115.281 977.985L106.886 974.226C102.269 972.162 97.2283 968.046 95.6876 965.08C93.845 961.539 92.8284 919.001 92.7225 841.016C92.6219 765.311 91.5524 719.355 89.7734 714.104C83.1206 694.471 60.9252 686.46 43.4871 697.402ZM190.934 705.608C198.595 713.491 198.672 713.883 198.672 745.103V776.637H173.522H148.373L148.412 747.356C148.455 715.561 150.996 706.698 161.662 701.144C172.665 695.416 182.484 696.914 190.934 705.608ZM561.862 782.117C546.447 791.852 545.475 797.828 545.475 882.957C545.475 932.492 544.467 961.424 542.619 964.979C541.049 968 535.984 972.213 531.367 974.346L522.973 978.225L531.976 977.53C538.057 977.062 542.616 974.57 546.023 969.855C550.712 963.361 551.05 957.48 550.886 885.417C550.73 816.641 551.233 806.895 555.374 798.465C557.936 793.244 563.014 787.434 566.654 785.56C571.766 782.923 607.423 782.297 723.451 782.798L873.628 783.446L880.908 790.937C889.84 800.127 890.944 816.647 883.216 825.434C875.325 834.406 862.21 836.528 814.589 836.544C774.127 836.558 769.298 837.07 762.494 842.054C747.214 853.249 746.579 876.87 761.181 890.984C766.156 895.792 772.189 897.644 788.118 899.249C805.755 901.024 809.501 902.34 814.724 908.586C823.54 919.132 822.875 932.901 813.061 942.998L805.323 950.96H709.73C633.966 950.96 612.305 951.747 605.303 954.757C596.36 958.603 587.833 968.346 587.833 974.719C587.833 980.567 592.1 978.598 595.357 971.247C601.538 957.29 608.49 956.407 712.438 956.407H808.092L817.093 947.146C827.304 936.641 829.03 923.844 822.097 910.048C816.649 899.21 809.384 895.675 788.285 893.594C768.361 891.627 758.838 885.3 756.448 872.435C754.732 863.196 760.506 848.776 767.456 844.95C770.701 843.163 791.078 842.008 819.386 842.008C871.928 842.008 880.728 839.897 889.713 825.148C897.351 812.605 895.323 797.58 884.482 786.423L876.296 777.999L723.459 777.291C573.849 776.599 570.44 776.699 561.862 782.117Z" fill="black"></path></svg>